<?xml version="1.0" encoding="utf-8"?>
<!-- Generator: Adobe Illustrator 24.1.2, SVG Export Plug-In . SVG Version: 6.00 Build 0)  -->
<svg version="1.1" id="Laag_1" xmlns="http://www.w3.org/2000/svg" xmlns:xlink="http://www.w3.org/1999/xlink" x="0px" y="0px"
	 viewBox="0 0 222.1 82" style="enable-background:new 0 0 222.1 82;" xml:space="preserve">
<style type="text/css">
	.st0{fill:#61758C;}
	.st1{fill:#C70D30;}
</style>
<g>
	<path class="st0" d="M86.1,45.9c0-0.2,0-0.5,0-0.7v-1.1c0-0.2,0-0.5-0.1-0.6c-0.3-0.8-1-1.5-2-1.5c-1.4,0-2.3,1.2-2.3,3
		c0,1.5,0.8,2.8,2.3,2.8c0.9,0,1.7-0.6,2-1.5C86.1,46.1,86.1,45.9,86.1,45.9 M87.6,41.4l0,1.5c0,0.2,0,0.5,0,0.7v4.2
		c0,1.8-0.4,2.9-1.1,3.6c-0.8,0.7-1.9,0.9-2.8,0.9c-0.9,0-2-0.2-2.6-0.6l0.2-0.8c0.1-0.2,0.2-0.3,0.4-0.2c0,0,1,0.5,2,0.5
		c1.5,0,2.5-0.8,2.5-2.7v-0.5c0-0.2,0-0.4,0-0.4c0,0-0.1,0.1-0.3,0.2c0,0-1,1.1-2.2,1.1c-1.9,0-3.3-1.7-3.3-3.8
		c0-2.7,1.7-4.2,3.5-4.2c1.4,0,2.1,0.7,2.4,1.4c0,0,0-0.2,0.1-0.4l0-0.5c0-0.2,0.2-0.4,0.4-0.4h0.5C87.4,41,87.6,41.2,87.6,41.4
		 M78.5,48.6c0,0.2-0.2,0.3-0.4,0.3h-0.7c-0.2,0-0.3-0.2-0.3-0.3v-3.8c0-0.2,0-0.5-0.1-0.7c0,0,0.1-2-1.7-2c-0.9,0-1.7,0.7-1.9,1.5
		c-0.1,0.2-0.1,0.4-0.1,0.7v4.4c0,0.2-0.2,0.3-0.3,0.3h-0.7c-0.2,0-0.3-0.2-0.3-0.3v-5.4c0-0.8,0-1.5-0.1-2.1h0.9
		c0.2,0,0.4,0.2,0.4,0.4l0,0.6c0,0.2,0,0.3,0,0.3c0,0,0.1-0.1,0.2-0.3c0,0,1.1-1.2,2.4-1.2c1.1,0,2.8,0.7,2.8,3.4V48.6z M69.7,38.8
		c0,0.5-0.3,0.9-0.9,0.9c-0.5,0-0.9-0.4-0.9-0.9c0-0.5,0.4-0.9,0.9-0.9C69.3,37.9,69.7,38.3,69.7,38.8 M66.5,41.8
		c0,0.2-0.2,0.4-0.4,0.4h-1.7V46c0,0.2,0,0.5,0.1,0.7c0,0,0.2,1.2,1,1.2c0.4,0,0.6,0,0.8-0.1l0,0.7c0,0.2-0.1,0.4-0.3,0.4
		c0,0-0.4,0.1-0.9,0.1c-0.7,0-1.2-0.2-1.5-0.6c-0.4-0.4-0.5-1.1-0.5-2v-4.3h-0.9c-0.2,0-0.4-0.2-0.4-0.4V41h1.2v-1.8h1.1h0h0
		c0.1,0,0.2,0.1,0.2,0.3v1.2c0,0.2,0.2,0.3,0.4,0.3h1.7V41.8z M60.5,48.6c0,0.2-0.2,0.3-0.3,0.3h-0.7c-0.2,0-0.4-0.2-0.4-0.3v-3.8
		c0-0.2,0.2-2.7-1.8-2.7c-0.9,0-1.6,0.6-1.9,1.4c-0.1,0.2-0.1,0.4-0.1,0.7v4.4c0,0.2-0.2,0.3-0.3,0.3h-0.7c-0.2,0-0.4-0.2-0.4-0.3
		V37.7c0-0.2,0.2-0.3,0.4-0.3h0.7c0.2,0,0.3,0.2,0.3,0.3v4.2c0,0.2,0,0.4,0,0.4c0,0,0.1-0.1,0.2-0.3c0,0,0.4-0.5,0.8-0.7
		c0.4-0.2,0.9-0.4,1.5-0.4c1,0,2.7,0.7,2.7,3.4V48.6z M52.2,41.3L52,42.1c-0.1,0.2-0.2,0.3-0.4,0.2c0,0-0.5-0.2-1.3-0.2
		c-1.8,0-2.8,1.3-2.8,3c0,1.8,1.2,2.9,2.7,2.9c0.8,0,1.4-0.3,1.4-0.3c0.2-0.1,0.4,0,0.4,0.2l0.2,0.7c-0.4,0.2-1.2,0.5-2.2,0.5
		c-2.4,0-3.9-1.6-3.9-4c0-2.4,1.6-4.2,4.2-4.2C51.1,40.9,51.8,41.1,52.2,41.3 M44.4,38.8c0,0.5-0.3,0.9-0.9,0.9
		c-0.5,0-0.9-0.4-0.9-0.9c0-0.5,0.4-0.9,0.9-0.9C44.1,37.9,44.4,38.3,44.4,38.8 M41.2,41.8c0,0.2-0.2,0.4-0.4,0.4h-1.7V46
		c0,0.2,0,0.5,0.1,0.7c0,0,0.2,1.2,1,1.2c0.4,0,0.6,0,0.8-0.1l0,0.7c0,0.2-0.1,0.4-0.3,0.4c0,0-0.4,0.1-0.9,0.1
		c-0.7,0-1.2-0.2-1.5-0.6c-0.4-0.4-0.5-1.1-0.5-2v-4.3H37c-0.2,0-0.3-0.2-0.3-0.4V41h1.2v-1.8h1.1h0c0.1,0,0.2,0.1,0.2,0.3v1.2
		c0,0.2,0.2,0.3,0.4,0.3h1.7V41.8z M30.7,40.6c0,1,0.7,1.5,2.2,2.1c1.8,0.7,2.8,1.6,2.8,3.2c0,1.7-1.2,3.2-3.8,3.2
		c-1.1,0-2.5-0.6-2.5-0.6c-0.2-0.1-0.3-0.3-0.2-0.5l0.3-0.8c0.6,0.4,1.6,0.7,2.5,0.7c1.4,0,2.3-0.8,2.3-1.9c0-1-0.6-1.6-2.1-2.2
		c-1.8-0.6-2.9-1.6-2.9-3.1c0-1.7,1.4-3,3.5-3c1.1,0,1.9,0.3,2.4,0.5L35,39.1c-0.1,0.2-0.3,0.3-0.4,0.2c0,0-0.8-0.4-1.8-0.4
		C31.3,39,30.7,39.8,30.7,40.6 M42.8,41.4c0-0.2,0.2-0.4,0.4-0.4h0.7c0.2,0,0.3,0.2,0.3,0.4v7.2c0,0.2-0.2,0.3-0.3,0.3h-0.7
		c-0.2,0-0.4-0.2-0.4-0.3V41.4z M68.1,41.4c0-0.2,0.2-0.4,0.3-0.4h0.7c0.2,0,0.3,0.2,0.3,0.4v7.2c0,0.2-0.2,0.3-0.3,0.3h-0.7
		c-0.2,0-0.3-0.2-0.3-0.3V41.4z M96.1,27.9H0V61h96.1V27.9z"/>
	<path class="st1" d="M200.6,81.5c-0.4-0.5-0.2-1.3,0.3-1.6c11.4-7.6,18.9-20.5,18.9-35.3c0-11.7-4.7-22.2-12.3-29.9
		C199.9,7,189.4,2.3,177.8,2.3c-10.8,0-20.7,4.1-28.1,10.9c-0.5,0.4-1.2,0.4-1.6-0.1c-0.4-0.5-0.4-1.2,0.1-1.6
		C156,4.4,166.4,0,177.8,0c24.5,0,44.3,20,44.3,44.6c0,15.6-7.9,29.3-19.9,37.2c-0.2,0.1-0.4,0.2-0.6,0.2
		C201.2,82,200.8,81.8,200.6,81.5"/>
	<path class="st1" d="M176.2,46.7c0-0.4,0-1.2,0-1.6V44c0-0.3,0-0.5-0.1-0.8c-0.3-1.1-1.1-1.8-2.2-1.8c-1.5,0-2.7,1.3-2.7,3.7
		c0,2,1,3.5,2.7,3.5c1,0,1.9-0.7,2.1-1.7L176.2,46.7z M187.4,43.8h4c0-1-0.4-2.7-2.3-2.7c-1.7,0-2.3,1.8-2.3,1.8
		C186.7,43.4,187,43.8,187.4,43.8 M157,47.7c0,1,0.7,1.6,1.6,1.6c1,0,1.8-0.7,2.1-1.5l0-0.2c0-0.3,0-0.9,0-1.3v-0.6
		C158.6,45.6,157,46.1,157,47.7 M125.4,47.5c0-0.3,0-0.9,0-1.3v-0.6c-2.1,0-3.8,0.5-3.8,2.1c0,1,0.7,1.6,1.6,1.6
		c1,0,1.8-0.7,2.1-1.5L125.4,47.5z M148.7,38.7h2.6c0.5,0,0.7,0.4,0.6,0.8L147.6,51c-0.2,0.4-0.7,0.8-1.1,0.8h-2.4
		c-0.5,0-1-0.4-1.1-0.8l-4.2-11.5c-0.2-0.4,0.1-0.8,0.6-0.8h2.7c0.5,0,1,0.4,1.1,0.8l1.3,4.5c0.1,0.4,0.3,1.2,0.4,1.6
		c0,0,0.4,1.3,0.5,2.4c0.1,0,0.2-0.4,0.3-0.8c0,0,0.2-1.2,0.5-2.4l1.5-5.3C147.8,39.1,148.3,38.7,148.7,38.7 M136.6,51
		c0,0.5-0.4,0.9-0.8,0.9h-2.4c-0.5,0-0.8-0.4-0.8-0.9V33.6c0-0.5,0.4-0.8,0.8-0.8h2.4c0.5,0,0.8,0.4,0.8,0.8V51z M129.5,51.8h-2.8
		c-0.5,0-0.9-0.3-1-0.7c-0.1-0.4-0.1-0.7-0.2-0.7c0,0-0.3,0.2-0.7,0.5c0,0-1.5,1.1-3.1,1.1c-2.6,0-4.2-1.9-4.2-4c0-3.4,3-5,7.7-5
		c0-0.1-0.1-0.6-0.2-1c0,0-0.2-0.9-2.2-0.9c-1.3,0-2.7,0.5-3.6,1l-0.5-1.8c-0.1-0.4,0.1-1,0.5-1.1c0,0,1.9-0.8,4.3-0.8
		c5.4,0,5.5,4.8,5.5,4.8c0.1,0.5,0.2,1.2,0.2,1.7v3.7C129.3,49.9,129.4,51.1,129.5,51.8 M107.6,38.5c0,1.2,1,1.7,3.3,2.5
		c3.2,1.2,4.7,2.8,4.7,5.4c0,3-2.3,5.6-7.3,5.6c-2.1,0-4.3-0.8-4.3-0.8c-0.4-0.2-0.7-0.7-0.6-1.1l0.6-2.5c1.1,0.6,2.8,1.1,4.5,1.1
		c1.9,0,2.9-0.8,2.9-2c0-1.1-0.9-1.8-3-2.5c-3-1-4.9-2.7-4.9-5.3c0-3.1,2.6-5.5,6.8-5.5c2,0,3.5,0.4,4.6,0.9l-0.7,2.5
		c-0.1,0.4-0.6,0.7-1,0.5c0,0-1.2-0.5-3-0.5C108.5,36.8,107.6,37.6,107.6,38.5 M153,48.1c0-3.4,3-5,7.6-5c0-0.1-0.1-0.6-0.2-1
		c0,0-0.2-0.9-2.2-0.9c-1.3,0-2.7,0.5-3.6,1l-0.5-1.8c-0.1-0.4,0.1-1,0.5-1.1c0,0,1.9-0.8,4.3-0.8c5.4,0,5.5,4.8,5.5,4.8
		c0.1,0.5,0.2,1.2,0.2,1.7v3.7c0,1.3,0.1,2.5,0.2,3.2h-2.8c-0.5,0-0.9-0.3-1-0.7c-0.1-0.4-0.1-0.7-0.2-0.7c0,0-0.3,0.2-0.7,0.5
		c0,0-1.5,1.1-3.1,1.1C154.5,52.1,153,50.2,153,48.1 M158.4,61h38.9c-0.5,0.6-1,1.1-1.5,1.6c-4.6,4.6-10.9,7.5-18,7.5
		s-13.4-2.9-18-7.5C159.3,62.1,158.8,61.6,158.4,61 M195.1,44.9c0,0.7,0,0.8,0,0.8c-0.1,0.5-0.5,0.8-1,0.8h-7.6
		c0.1,1.7,1.8,2.5,3.7,2.5c1.4,0,2.5-0.2,3.6-0.5l0.4,1.9c0.1,0.5-0.2,0.9-0.7,1.1c0,0-2.1,0.6-3.9,0.6c-4.4,0-7-2.6-7-6.7
		c0-3.3,2.1-7,6.6-7C193.6,38.4,195.1,41.7,195.1,44.9 M180.3,39.5l0,2.2c0,0.5,0,1.2,0,1.7v6.5c0,2.5-0.5,4.6-2,5.9
		c-1.4,1.2-3.4,1.6-5.3,1.6c-1.7,0-3.5-0.4-4.7-1l0.6-2.3c0.1-0.5,0.6-0.7,1-0.5c0,0,1.5,0.7,3,0.7c1.9,0,3.4-1,3.4-3.5v0
		c0-0.5,0-0.8,0-0.8c0,0-0.3,0.2-0.7,0.5c0,0-1.4,1.2-2.9,1.2c-3.2,0-5.5-2.6-5.5-6.4c0-4.2,2.7-6.9,5.9-6.9c1.8,0,2.9,0.8,3.6,1.9
		c0,0,0.1-0.4,0.1-0.8c0-0.4,0.4-0.8,0.9-0.8h1.8C180,38.7,180.3,39.1,180.3,39.5 M214,44.6c0-20.1-16.2-36.4-36.2-36.4
		c-14,0-26.2,8-32.2,19.8H96V61h59.5c5,6.9,13.2,11.4,22.4,11.4c15.3,0,27.7-12.5,27.7-27.9c0-15.1-11.9-27.3-26.7-27.9
		c-0.6,0-1.2,0.5-1.2,1.1c0,0.6,0.5,1.2,1.1,1.2c7.3,0.3,13.9,3.7,18.3,8.9h-48.9c1.5-2.7,3.4-5.3,5.6-7.5c6.1-6.2,14.6-10,24-10
		c9.4,0,17.8,3.8,24,10c6.1,6.2,9.9,14.7,9.9,24.1c0,6-1.6,11.7-4.3,16.6c-0.3,0.6-0.1,1.3,0.4,1.6c0.2,0.1,0.4,0.2,0.6,0.2
		c0.4,0,0.8-0.2,1-0.6C212.3,57,214,51,214,44.6"/>
</g>
</svg>
