<svg width="187" height="30" viewBox="0 0 187 30" fill="none" xmlns="http://www.w3.org/2000/svg">
<path d="M6.456 13.432H5.304V23H0.92V0.599998H5.304V10.52L6.328 10.072L12.504 0.599998H17.496L10.968 10.008L9.24 11.224L11.032 12.472L18.488 23H13.08L6.456 13.432ZM18.3685 15C18.3685 12.2907 19.0298 10.2107 20.3525 8.76C21.6752 7.288 23.5312 6.552 25.9205 6.552C27.2005 6.552 28.3098 6.75467 29.2485 7.16C30.1872 7.56533 30.9658 8.14133 31.5845 8.888C32.2032 9.61333 32.6618 10.4987 32.9605 11.544C33.2805 12.5893 33.4405 13.7413 33.4405 15C33.4405 17.7093 32.7792 19.8 31.4565 21.272C30.1552 22.7227 28.3098 23.448 25.9205 23.448C24.6405 23.448 23.5312 23.2453 22.5925 22.84C21.6538 22.4347 20.8645 21.8693 20.2245 21.144C19.6058 20.3973 19.1365 19.5013 18.8165 18.456C18.5178 17.4107 18.3685 16.2587 18.3685 15ZM22.6565 15C22.6565 15.704 22.7205 16.3547 22.8485 16.952C22.9765 17.5493 23.1685 18.072 23.4245 18.52C23.6805 18.968 24.0112 19.32 24.4165 19.576C24.8432 19.8107 25.3445 19.928 25.9205 19.928C27.0085 19.928 27.8192 19.5333 28.3525 18.744C28.8858 17.9547 29.1525 16.7067 29.1525 15C29.1525 13.528 28.9072 12.344 28.4165 11.448C27.9258 10.5307 27.0938 10.072 25.9205 10.072C24.8965 10.072 24.0965 10.456 23.5205 11.224C22.9445 11.992 22.6565 13.2507 22.6565 15ZM36.324 7H39.364L39.844 8.92H39.972C40.5267 8.10933 41.1773 7.512 41.924 7.128C42.692 6.744 43.62 6.552 44.708 6.552C46.7133 6.552 48.2173 7.192 49.22 8.472C50.2227 9.73067 50.724 11.768 50.724 14.584C50.724 15.9493 50.564 17.1867 50.244 18.296C49.924 19.384 49.444 20.312 48.804 21.08C48.1853 21.848 47.4173 22.4347 46.5 22.84C45.604 23.2453 44.5693 23.448 43.396 23.448C42.7347 23.448 42.1907 23.3947 41.764 23.288C41.3373 23.2027 40.9107 23.0533 40.484 22.84V29.4H36.324V7ZM43.46 10.072C42.6493 10.072 42.0093 10.2747 41.54 10.68C41.092 11.0853 40.74 11.6933 40.484 12.504V19.16C40.7827 19.3947 41.1027 19.5867 41.444 19.736C41.8067 19.864 42.276 19.928 42.852 19.928C44.0467 19.928 44.9427 19.512 45.54 18.68C46.1373 17.8267 46.436 16.4293 46.436 14.488C46.436 13.08 46.2013 11.992 45.732 11.224C45.2627 10.456 44.5053 10.072 43.46 10.072ZM52.9973 11.8C52.9973 8.06667 53.8186 5.19733 55.4613 3.192C57.1039 1.16533 59.4506 0.151999 62.5013 0.151999C64.1013 0.151999 65.4986 0.429332 66.6933 0.983999C67.8879 1.53867 68.8799 2.328 69.6693 3.352C70.4586 4.376 71.0453 5.60267 71.4293 7.032C71.8133 8.46133 72.0053 10.0507 72.0053 11.8C72.0053 15.5333 71.1733 18.4133 69.5093 20.44C67.8666 22.4453 65.5306 23.448 62.5013 23.448C60.8799 23.448 59.4719 23.1707 58.2773 22.616C57.0826 22.0613 56.0906 21.272 55.3013 20.248C54.5333 19.224 53.9573 17.9973 53.5733 16.568C53.1893 15.1387 52.9973 13.5493 52.9973 11.8ZM57.6053 11.8C57.6053 12.9307 57.7013 13.976 57.8933 14.936C58.0853 15.8747 58.3733 16.6853 58.7573 17.368C59.1626 18.0507 59.6746 18.584 60.2933 18.968C60.9119 19.352 61.6479 19.544 62.5013 19.544C64.0586 19.544 65.2639 18.936 66.1173 17.72C66.9706 16.504 67.3973 14.5307 67.3973 11.8C67.3973 10.712 67.3013 9.69867 67.1093 8.76C66.9386 7.82133 66.6613 7 66.2773 6.296C65.8933 5.592 65.3919 5.048 64.7733 4.664C64.1546 4.25867 63.3973 4.056 62.5013 4.056C60.9439 4.056 59.7386 4.68533 58.8853 5.944C58.0319 7.18133 57.6053 9.13333 57.6053 11.8ZM75.0428 7H78.0828L78.5628 8.92H78.6908C79.2454 8.10933 79.8961 7.512 80.6428 7.128C81.4108 6.744 82.3388 6.552 83.4268 6.552C85.4321 6.552 86.9361 7.192 87.9388 8.472C88.9414 9.73067 89.4428 11.768 89.4428 14.584C89.4428 15.9493 89.2828 17.1867 88.9628 18.296C88.6428 19.384 88.1628 20.312 87.5228 21.08C86.9041 21.848 86.1361 22.4347 85.2188 22.84C84.3228 23.2453 83.2881 23.448 82.1148 23.448C81.4534 23.448 80.9094 23.3947 80.4828 23.288C80.0561 23.2027 79.6294 23.0533 79.2028 22.84V29.4H75.0428V7ZM82.1788 10.072C81.3681 10.072 80.7281 10.2747 80.2588 10.68C79.8108 11.0853 79.4588 11.6933 79.2028 12.504V19.16C79.5014 19.3947 79.8214 19.5867 80.1628 19.736C80.5254 19.864 80.9948 19.928 81.5708 19.928C82.7654 19.928 83.6614 19.512 84.2588 18.68C84.8561 17.8267 85.1548 16.4293 85.1548 14.488C85.1548 13.08 84.9201 11.992 84.4508 11.224C83.9814 10.456 83.2241 10.072 82.1788 10.072Z" fill="white"/>
<path d="M91.716 11.8C91.716 8.06667 92.5373 5.19733 94.18 3.192C95.8227 1.16533 98.1693 0.151999 101.22 0.151999C102.82 0.151999 104.217 0.429332 105.412 0.983999C106.607 1.53867 107.599 2.328 108.388 3.352C109.177 4.376 109.764 5.60267 110.148 7.032C110.532 8.46133 110.724 10.0507 110.724 11.8C110.724 15.5333 109.892 18.4133 108.228 20.44C106.585 22.4453 104.249 23.448 101.22 23.448C99.5987 23.448 98.1907 23.1707 96.996 22.616C95.8013 22.0613 94.8093 21.272 94.02 20.248C93.252 19.224 92.676 17.9973 92.292 16.568C91.908 15.1387 91.716 13.5493 91.716 11.8ZM96.324 11.8C96.324 12.9307 96.42 13.976 96.612 14.936C96.804 15.8747 97.092 16.6853 97.476 17.368C97.8813 18.0507 98.3933 18.584 99.012 18.968C99.6307 19.352 100.367 19.544 101.22 19.544C102.777 19.544 103.983 18.936 104.836 17.72C105.689 16.504 106.116 14.5307 106.116 11.8C106.116 10.712 106.02 9.69867 105.828 8.76C105.657 7.82133 105.38 7 104.996 6.296C104.612 5.592 104.111 5.048 103.492 4.664C102.873 4.25867 102.116 4.056 101.22 4.056C99.6627 4.056 98.4573 4.68533 97.604 5.944C96.7507 7.18133 96.324 9.13333 96.324 11.8ZM117.762 7V16.088C117.762 17.3893 117.911 18.328 118.21 18.904C118.53 19.48 119.138 19.768 120.034 19.768C120.823 19.768 121.474 19.5333 121.986 19.064C122.519 18.5947 122.914 18.0187 123.17 17.336V7H127.33V18.136C127.33 19.0107 127.372 19.8747 127.458 20.728C127.543 21.56 127.671 22.3173 127.842 23H124.706L123.97 20.632H123.842C123.351 21.4427 122.668 22.1147 121.794 22.648C120.919 23.1813 119.884 23.448 118.69 23.448C117.879 23.448 117.154 23.3413 116.514 23.128C115.874 22.9147 115.34 22.5627 114.914 22.072C114.487 21.5813 114.156 20.92 113.922 20.088C113.708 19.256 113.602 18.2107 113.602 16.952V7H117.762ZM144.58 17.368C144.58 18.264 144.591 19.16 144.612 20.056C144.634 20.952 144.73 21.944 144.9 23.032H141.924L141.348 20.952H141.22C140.794 21.6987 140.175 22.3067 139.364 22.776C138.575 23.224 137.636 23.448 136.548 23.448C134.543 23.448 132.986 22.7867 131.876 21.464C130.767 20.1413 130.212 18.072 130.212 15.256C130.212 12.5253 130.831 10.4027 132.068 8.888C133.306 7.37333 135.119 6.616 137.508 6.616C138.17 6.616 138.714 6.65867 139.14 6.744C139.567 6.808 139.994 6.92533 140.42 7.096V0.599998H144.58V17.368ZM137.508 19.928C138.319 19.928 138.959 19.736 139.428 19.352C139.898 18.9467 140.228 18.3707 140.42 17.624V10.84C140.122 10.6053 139.791 10.4347 139.428 10.328C139.066 10.2 138.596 10.136 138.02 10.136C136.847 10.136 135.962 10.5307 135.364 11.32C134.788 12.1093 134.5 13.464 134.5 15.384C134.5 16.7493 134.735 17.848 135.204 18.68C135.695 19.512 136.463 19.928 137.508 19.928ZM161.03 21.624C160.39 22.136 159.516 22.5733 158.406 22.936C157.318 23.2773 156.156 23.448 154.918 23.448C152.337 23.448 150.449 22.7013 149.254 21.208C148.06 19.6933 147.462 17.624 147.462 15C147.462 12.184 148.134 10.072 149.478 8.664C150.822 7.256 152.71 6.552 155.142 6.552C155.953 6.552 156.742 6.65867 157.51 6.872C158.278 7.08533 158.961 7.43733 159.558 7.928C160.156 8.41867 160.636 9.08 160.998 9.912C161.361 10.744 161.542 11.7787 161.542 13.016C161.542 13.464 161.51 13.944 161.446 14.456C161.404 14.968 161.329 15.5013 161.222 16.056H151.622C151.686 17.4 152.028 18.4133 152.646 19.096C153.286 19.7787 154.31 20.12 155.718 20.12C156.593 20.12 157.372 19.992 158.054 19.736C158.758 19.4587 159.292 19.1813 159.654 18.904L161.03 21.624ZM155.078 9.88C153.99 9.88 153.18 10.2107 152.646 10.872C152.134 11.512 151.825 12.376 151.718 13.464H157.67C157.756 12.312 157.574 11.4267 157.126 10.808C156.7 10.1893 156.017 9.88 155.078 9.88ZM173.312 10.904C172.651 10.6693 172.054 10.552 171.52 10.552C170.774 10.552 170.144 10.7547 169.632 11.16C169.142 11.544 168.811 12.0453 168.64 12.664V23H164.48V7H167.712L168.192 9.112H168.32C168.683 8.32267 169.174 7.71467 169.792 7.288C170.411 6.86133 171.136 6.648 171.968 6.648C172.523 6.648 173.152 6.76533 173.856 7L173.312 10.904ZM182.323 18.584C182.323 18.1573 182.142 17.816 181.779 17.56C181.416 17.304 180.968 17.0693 180.435 16.856C179.902 16.6427 179.315 16.4293 178.675 16.216C178.035 15.9813 177.448 15.672 176.915 15.288C176.382 14.8827 175.934 14.3813 175.571 13.784C175.208 13.1653 175.027 12.376 175.027 11.416C175.027 9.83733 175.496 8.632 176.435 7.8C177.374 6.968 178.728 6.552 180.499 6.552C181.715 6.552 182.814 6.68 183.795 6.936C184.776 7.192 185.544 7.48 186.099 7.8L185.171 10.808C184.68 10.616 184.062 10.4133 183.315 10.2C182.568 9.98667 181.811 9.88 181.043 9.88C179.806 9.88 179.187 10.36 179.187 11.32C179.187 11.704 179.368 12.0133 179.731 12.248C180.094 12.4827 180.542 12.7067 181.075 12.92C181.608 13.112 182.195 13.3253 182.835 13.56C183.475 13.7947 184.062 14.104 184.595 14.488C185.128 14.8507 185.576 15.3307 185.939 15.928C186.302 16.5253 186.483 17.2933 186.483 18.232C186.483 19.8533 185.96 21.1333 184.915 22.072C183.891 22.9893 182.344 23.448 180.275 23.448C179.144 23.448 178.078 23.2987 177.075 23C176.094 22.7227 175.294 22.392 174.675 22.008L175.827 18.904C176.318 19.1813 176.968 19.4587 177.779 19.736C178.59 19.992 179.422 20.12 180.275 20.12C180.894 20.12 181.384 20.0027 181.747 19.768C182.131 19.5333 182.323 19.1387 182.323 18.584Z" fill="#52328F"/>
</svg>
