<?xml version="1.0" encoding="UTF-8"?>
<svg width="4142px" height="238px" viewBox="0 0 4142 238" version="1.1" xmlns="http://www.w3.org/2000/svg" xmlns:xlink="http://www.w3.org/1999/xlink">
    <!-- Generator: Sketch 50.2 (55047) - http://www.bohemiancoding.com/sketch -->
    <title>Artboard 1</title>
    <desc>Created with Sketch.</desc>
    <defs></defs>
    <g id="Artboard-1" stroke="none" stroke-width="1" fill="none" fill-rule="evenodd">
        <polygon id="Fill-1" fill="#F0F2F5" points="1783.1694 0.0005 1226.1924 390.0005 1396.1914 390.0005 1953.1694 0.0005"></polygon>
        <polygon id="Fill-2" fill="#F0F2F5" points="2463.1692 0.0005 1906.1922 390.0005 2076.1912 390.0005 2633.1692 0.0005"></polygon>
        <polygon id="Fill-3" fill="#F0F2F5" points="2123.1709 0.0005 1566.1929 390.0005 1736.1929 390.0005 2293.1709 0.0005"></polygon>
        <polygon id="Fill-4" fill="#F0F2F5" points="3483.1692 0.0005 2926.1922 390.0005 3096.1922 390.0005 3653.1702 0.0005"></polygon>
        <polygon id="Fill-5" fill="#F0F2F5" points="3143.1699 0.0005 2586.1919 390.0005 2756.1929 390.0005 3313.1699 0.0005"></polygon>
        <polygon id="Fill-6" fill="#F0F2F5" points="2803.1716 0.0005 2246.1936 390.0005 2416.1936 390.0005 2973.1716 0.0005"></polygon>
        <polygon id="Fill-7" fill="#F0F2F5" points="1443.1702 0.0005 886.1932 390.0005 1056.1932 390.0005 1613.1712 0.0005"></polygon>
        <polygon id="Fill-8" fill="#F0F2F5" points="3946.1938 390 4116.1938 390 4141.9998 371.93 4141.9998 252.894"></polygon>
        <polygon id="Fill-9" fill="#F0F2F5" points="1103.1698 0.0005 546.1928 390.0005 716.1928 390.0005 1273.1708 0.0005"></polygon>
        <polygon id="Fill-10" fill="#F0F2F5" points="3823.1704 0.0005 3266.1924 390.0005 3436.1924 390.0005 3993.1704 0.0005"></polygon>
        <polygon id="Fill-11" fill="#F0F2F5" points="3606.1914 390 3776.1914 390 4142.0004 133.859 4142.0004 14.823"></polygon>
        <polygon id="Fill-12" fill="#F0F2F5" points="763.1694 0.0005 206.1924 390.0005 376.1914 390.0005 933.1704 0.0005"></polygon>
        <polygon id="Fill-13" fill="#F0F2F5" points="423.1701 0.0005 0.0001 296.3075 0.0001 390.0005 36.1931 390.0005 593.1711 0.0005"></polygon>
        <polygon id="Fill-14" fill="#F0F2F5" points="83.1698 0.0005 -0.0002 58.2355 -0.0002 177.2715 253.1698 0.0005"></polygon>
        <polygon id="Fill-15" fill="#DEE3E8" points="2633.1697 0.0005 2076.1917 390.0005 2246.1937 390.0005 2803.1717 0.0005"></polygon>
        <polygon id="Fill-16" fill="#DEE3E8" points="1953.1691 0.0005 1396.1921 390.0005 1566.1931 390.0005 2123.1711 0.0005"></polygon>
        <polygon id="Fill-17" fill="#DEE3E8" points="2293.1704 0.0005 1736.1934 390.0005 1906.1924 390.0005 2463.1704 0.0005"></polygon>
        <polygon id="Fill-18" fill="#DEE3E8" points="2973.1702 0.0005 2416.1932 390.0005 2586.1922 390.0005 3143.1702 0.0005"></polygon>
        <polygon id="Fill-19" fill="#DEE3E8" points="3653.1699 0.0005 3096.1919 390.0005 3266.1919 390.0005 3823.1699 0.0005"></polygon>
        <polygon id="Fill-20" fill="#DEE3E8" points="3313.1694 0.0005 2756.1924 390.0005 2926.1914 390.0005 3483.1694 0.0005"></polygon>
        <polygon id="Fill-21" fill="#DEE3E8" points="3776.1912 390 3946.1942 390 4142.0002 252.894 4142.0002 133.859"></polygon>
        <polygon id="Fill-22" fill="#DEE3E8" points="1613.1698 0.0005 1056.1928 390.0005 1226.1918 390.0005 1783.1698 0.0005"></polygon>
        <polygon id="Fill-23" fill="#DEE3E8" points="4116.1924 390 4142.0004 390 4142.0004 371.929"></polygon>
        <polygon id="Fill-24" fill="#DEE3E8" points="0 0.0005 0 58.2355 83.17 0.0005"></polygon>
        <polygon id="Fill-25" fill="#DEE3E8" points="1273.1704 0.0005 716.1934 390.0005 886.1924 390.0005 1443.1704 0.0005"></polygon>
        <polygon id="Fill-26" fill="#DEE3E8" points="3993.1702 0.0005 3436.1932 390.0005 3606.1922 390.0005 4142.0002 14.8235 4142.0002 0.0005"></polygon>
        <polygon id="Fill-27" fill="#DEE3E8" points="253.1694 0.0005 0.0004 177.2715 0.0004 296.3075 423.1704 0.0005"></polygon>
        <polygon id="Fill-28" fill="#DEE3E8" points="933.1702 0.0005 376.1922 390.0005 546.1922 390.0005 1103.1702 0.0005"></polygon>
        <polygon id="Fill-29" fill="#DEE3E8" points="593.1708 0.0005 36.1938 390.0005 206.1928 390.0005 763.1708 0.0005"></polygon>
    </g>
</svg>
