<svg xmlns="http://www.w3.org/2000/svg" xmlns:xlink="http://www.w3.org/1999/xlink" width="65" height="65" viewBox="0 0 65 65"><defs><style>.a{fill:#fff;stroke:#fff;stroke-width:3px;}.b{fill:#4d5c6e;}.c{stroke:none;}.d{fill:none;}.e{filter:url(#a);}</style><filter id="a" x="0" y="0" width="65" height="65" filterUnits="userSpaceOnUse"><feOffset dy="2" input="SourceAlpha"/><feGaussianBlur stdDeviation="3.5" result="b"/><feFlood flood-opacity="0.161"/><feComposite operator="in" in2="b"/><feComposite in="SourceGraphic"/></filter></defs><g transform="translate(-776.5 -404.5)"><g class="e" transform="matrix(1, 0, 0, 1, 776.5, 404.5)"><g class="a" transform="translate(54.5 8.5) rotate(90)"><circle class="c" cx="22" cy="22" r="22"/><circle class="d" cx="22" cy="22" r="20.5"/></g></g><g transform="translate(798.428 429.108)"><path class="b" d="M314.8,370.9l12.313-12.312a1.338,1.338,0,1,1,1.9,1.888h0L316.7,372.792A1.338,1.338,0,0,1,314.8,370.9Z" transform="translate(-307.782 -358.198)"/><path class="b" d="M316.776,371.067l-6.6-6.6a1.338,1.338,0,1,1,1.888-1.9h0l6.6,6.6a1.338,1.338,0,0,1-1.893,1.893Z" transform="translate(-309.787 -356.468)"/></g></g></svg>
