<svg xmlns="http://www.w3.org/2000/svg" width="30.639" height="37.275" viewBox="0 0 30.639 37.275">
  <g id="Element" opacity="0.995">
    <path id="Path_4" data-name="Path 4" d="M279.993,287.108a21,21,0,0,0-.72-3.523,11.973,11.973,0,0,0-1.875-3.743c-2.082-2.747-5.446-4.354-10-4.777-3.928-.365-7.072.206-9.607,1.748a13.387,13.387,0,0,0-4.661,5.122,8.781,8.781,0,0,0-.625,8.224,1.557,1.557,0,0,1-.174,1.493,19.274,19.274,0,0,1-1.167,1.7,16.542,16.542,0,0,0-1.6,2.433,1.422,1.422,0,0,0,.079,1.308,4.738,4.738,0,0,0,2.826,1.732,15.582,15.582,0,0,1,.922,4.173,3.178,3.178,0,0,0,.828,2.2,3.6,3.6,0,0,0,2.236.575c.2.012.59-.012,1.578-.077.762-.05,1.628-.106,2.049-.106h.01a1.34,1.34,0,0,1,1.368.857c.581,1.248,1.194,2.5,1.788,3.719q.377.769.752,1.543a.928.928,0,0,0,.772.523l.066,0a.93.93,0,0,0,.772-.411c2.637-3.907,4.971-7.005,8.949-8.355a.932.932,0,0,0,.623-1.013c-.388-2.757-.1-3.951,1.568-6.386.924-1.352,1.742-2.813,2.437-4.078A7.82,7.82,0,0,0,279.993,287.108Zm-2.44,3.982c-.706,1.283-1.468,2.641-2.346,3.926-1.771,2.593-2.253,4.2-1.964,6.951-3.837,1.553-6.308,4.645-8.274,7.481l-.05-.1c-.59-1.206-1.2-2.454-1.771-3.685a3.171,3.171,0,0,0-3.058-1.937h-.017c-.48,0-1.374.06-2.163.112-.538.035-1.208.077-1.354.075a5.6,5.6,0,0,1-1.125-.133,4.008,4.008,0,0,1-.191-1c-.046-.374-.214-1.688-.5-2.913-.322-1.4-.762-2.714-1.8-2.842a4.1,4.1,0,0,1-1.561-.71c.278-.49.806-1.21,1.279-1.858a18.915,18.915,0,0,0,1.308-1.927,3.417,3.417,0,0,0,.228-3.133,6.926,6.926,0,0,1,.554-6.551,11.225,11.225,0,0,1,4-4.437c2.182-1.327,4.952-1.813,8.467-1.487a15.37,15.37,0,0,1,5.548,1.464,9.022,9.022,0,0,1,3.139,2.585,13.028,13.028,0,0,1,2.234,6.38A5.94,5.94,0,0,1,277.554,291.091Z" transform="translate(-249.438 -274.958)" fill="#141a30"/>
    <path id="Path_5" data-name="Path 5" d="M259.585,281.926h-.733l.55-1.611a.932.932,0,1,0-1.765-.6l-.972,2.842a.931.931,0,0,0,.882,1.233h.625l-.623,1.449a.932.932,0,1,0,1.713.735l1.179-2.749a.931.931,0,0,0-.858-1.3Z" transform="translate(-241.714 -270.52)" fill="#141a30"/>
    <path id="Path_6" data-name="Path 6" d="M258.2,280.63a.932.932,0,0,0,.932-.932v-1.806a.932.932,0,0,0-1.864,0V279.7A.932.932,0,0,0,258.2,280.63Z" transform="translate(-241.014 -272.801)" fill="#141a30"/>
    <path id="Path_7" data-name="Path 7" d="M258.2,283.035a.932.932,0,0,0-.932.932v1.806a.932.932,0,0,0,1.864,0v-1.806A.932.932,0,0,0,258.2,283.035Z" transform="translate(-241.014 -266.265)" fill="#141a30"/>
    <path id="Path_8" data-name="Path 8" d="M262.607,280.433H260.8a.931.931,0,1,0,0,1.862h1.806a.931.931,0,1,0,0-1.862Z" transform="translate(-238.214 -269.065)" fill="#141a30"/>
    <path id="Path_9" data-name="Path 9" d="M257.465,281.363a.932.932,0,0,0-.932-.93h-1.806a.931.931,0,1,0,0,1.862h1.806A.932.932,0,0,0,257.465,281.363Z" transform="translate(-244.751 -269.065)" fill="#141a30"/>
    <path id="Path_10" data-name="Path 10" d="M260.038,281.117a.921.921,0,0,0,.658-.272l1.277-1.277a.932.932,0,0,0-1.316-1.318l-1.279,1.277a.931.931,0,0,0,.66,1.59Z" transform="translate(-239.034 -271.707)" fill="#141a30"/>
    <path id="Path_11" data-name="Path 11" d="M256.362,282.545l-1.279,1.277a.931.931,0,0,0,.66,1.59.92.92,0,0,0,.658-.272l1.277-1.277a.932.932,0,0,0-1.316-1.318Z" transform="translate(-243.657 -267.085)" fill="#141a30"/>
    <path id="Path_12" data-name="Path 12" d="M260.7,282.545a.932.932,0,0,0-1.318,1.318l1.279,1.277a.932.932,0,0,0,1.316,0,.93.93,0,0,0,0-1.318Z" transform="translate(-239.034 -267.085)" fill="#141a30"/>
    <path id="Path_13" data-name="Path 13" d="M256.362,280.846a.932.932,0,0,0,1.316,0,.93.93,0,0,0,0-1.318L256.4,278.25a.932.932,0,0,0-1.318,1.318Z" transform="translate(-243.657 -271.707)" fill="#141a30"/>
  </g>
</svg>
