<svg id="Laag_1" data-name="Laag 1" xmlns="http://www.w3.org/2000/svg" viewBox="0 0 407.72 56.28"><defs><style>.cls-1{fill:#1d1d1b;}.cls-2{fill:#43a6de;}</style></defs><path class="cls-1" d="M120.45,226.59v15.06l17.08-17.81a16.1,16.1,0,0,1,2.09-1.91,3.89,3.89,0,0,1,2.3-.61,4.18,4.18,0,0,1,3,1.1,3.52,3.52,0,0,1,1.16,2.68,5.33,5.33,0,0,1-2,3.78l-10.58,10,12.19,17.46a21.6,21.6,0,0,1,1.93,3.18,6.15,6.15,0,0,1,.65,2.65,3.33,3.33,0,0,1-1.13,2.49,4.31,4.31,0,0,1-3.06,1.05,5.22,5.22,0,0,1-3-.77,6.63,6.63,0,0,1-1.93-2.07q-.8-1.29-1.41-2.34l-10.28-15.82-7.12,6.82v8.88a5.65,5.65,0,0,1-1.23,4,4.16,4.16,0,0,1-3.17,1.3,4.28,4.28,0,0,1-2.14-.58,4.09,4.09,0,0,1-1.58-1.59,5.21,5.21,0,0,1-.5-1.9c0-.72-.08-1.77-.08-3.13V226.59a5.84,5.84,0,0,1,1.15-4,4,4,0,0,1,3.15-1.32,4.14,4.14,0,0,1,3.18,1.3A5.65,5.65,0,0,1,120.45,226.59Z" transform="translate(-111.75 -221.32)"/><path class="cls-1" d="M183.2,249.47a18.91,18.91,0,0,1-1.11,6.59,14.59,14.59,0,0,1-3.22,5.19,14.36,14.36,0,0,1-5,3.33,17.88,17.88,0,0,1-6.6,1.15,17.31,17.31,0,0,1-6.53-1.17,14.44,14.44,0,0,1-8.25-8.51,18.89,18.89,0,0,1-1.09-6.58,19.13,19.13,0,0,1,1.11-6.65,14.33,14.33,0,0,1,3.19-5.15,14.07,14.07,0,0,1,5-3.3,19.08,19.08,0,0,1,13.13,0,14.2,14.2,0,0,1,8.27,8.5A19,19,0,0,1,183.2,249.47Zm-8,0c0-3.26-.71-5.8-2.15-7.61a7,7,0,0,0-5.79-2.73,7.17,7.17,0,0,0-4.13,1.22,7.64,7.64,0,0,0-2.75,3.59,16.26,16.26,0,0,0,0,11,7.93,7.93,0,0,0,2.73,3.59,7.52,7.52,0,0,0,10-1.49C174.46,255.22,175.17,252.7,175.17,249.47Z" transform="translate(-111.75 -221.32)"/><path class="cls-1" d="M196.88,237.7v1a15.81,15.81,0,0,1,4.69-4.08,11.47,11.47,0,0,1,5.51-1.31,12.79,12.79,0,0,1,6.8,1.91,13.16,13.16,0,0,1,4.9,5.56,19.45,19.45,0,0,1,1.8,8.67,21,21,0,0,1-1,6.79,15.08,15.08,0,0,1-2.85,5.18,12.38,12.38,0,0,1-4.29,3.22,12.61,12.61,0,0,1-5.32,1.13,11.21,11.21,0,0,1-5.76-1.37,16.58,16.58,0,0,1-4.44-4.05v12q0,5.28-3.84,5.28c-1.5,0-2.5-.46-3-1.36a8.57,8.57,0,0,1-.74-4V237.75a5,5,0,0,1,1-3.41,3.44,3.44,0,0,1,2.72-1.13,3.59,3.59,0,0,1,2.77,1.16A4.7,4.7,0,0,1,196.88,237.7Zm15.68,11.63a14,14,0,0,0-1-5.44,8,8,0,0,0-2.68-3.48,6.41,6.41,0,0,0-3.79-1.22,7.14,7.14,0,0,0-5.59,2.61c-1.51,1.74-2.27,4.29-2.27,7.67,0,3.19.76,5.66,2.26,7.43a7,7,0,0,0,5.6,2.65,6.4,6.4,0,0,0,3.69-1.16,8,8,0,0,0,2.72-3.47A13.81,13.81,0,0,0,212.56,249.33Z" transform="translate(-111.75 -221.32)"/><path class="cls-2" d="M246.45,221.32A22.87,22.87,0,0,1,257.92,224a17.48,17.48,0,0,1,7.25,7.7,26.27,26.27,0,0,1,2.46,11.74,28.62,28.62,0,0,1-1.34,9.05,19.6,19.6,0,0,1-4.05,7.06,17.55,17.55,0,0,1-6.62,4.57,26.14,26.14,0,0,1-18,0,17.92,17.92,0,0,1-6.65-4.59,19.36,19.36,0,0,1-4-7.12,28.66,28.66,0,0,1-1.37-9,27.67,27.67,0,0,1,1.43-9.08,19.36,19.36,0,0,1,4.11-7,17.84,17.84,0,0,1,6.56-4.43A23.55,23.55,0,0,1,246.45,221.32Zm12.37,22.09a20.1,20.1,0,0,0-1.53-8.18,11.38,11.38,0,0,0-4.35-5.23,12,12,0,0,0-6.49-1.77,11.83,11.83,0,0,0-4.82,1,10.64,10.64,0,0,0-3.8,2.86,13.5,13.5,0,0,0-2.52,4.79,21.5,21.5,0,0,0-.93,6.55,22,22,0,0,0,.93,6.62,13.58,13.58,0,0,0,2.6,4.91,11,11,0,0,0,3.87,2.91,11.59,11.59,0,0,0,4.79,1,11.8,11.8,0,0,0,6.14-1.67,11.51,11.51,0,0,0,4.45-5.16A20,20,0,0,0,258.82,243.41Z" transform="translate(-111.75 -221.32)"/><path class="cls-2" d="M281.9,237.7v1a15.81,15.81,0,0,1,4.69-4.08,11.47,11.47,0,0,1,5.51-1.31,12.74,12.74,0,0,1,6.79,1.91,13.11,13.11,0,0,1,4.91,5.56,19.45,19.45,0,0,1,1.8,8.67,21,21,0,0,1-1,6.79,15.08,15.08,0,0,1-2.85,5.18,12.38,12.38,0,0,1-4.29,3.22,12.61,12.61,0,0,1-5.32,1.13,11.21,11.21,0,0,1-5.76-1.37,16.58,16.58,0,0,1-4.44-4.05v12q0,5.28-3.84,5.28c-1.5,0-2.5-.46-3-1.36a8.57,8.57,0,0,1-.74-4V237.75a5,5,0,0,1,1-3.41,3.44,3.44,0,0,1,2.72-1.13,3.59,3.59,0,0,1,2.77,1.16A4.7,4.7,0,0,1,281.9,237.7Zm15.68,11.63a14,14,0,0,0-1-5.44,8,8,0,0,0-2.68-3.48,6.42,6.42,0,0,0-3.8-1.22,7.13,7.13,0,0,0-5.58,2.61c-1.51,1.74-2.27,4.29-2.27,7.67,0,3.19.75,5.66,2.26,7.43a7,7,0,0,0,5.59,2.65,6.41,6.41,0,0,0,3.7-1.16,8,8,0,0,0,2.72-3.47A13.81,13.81,0,0,0,297.58,249.33Z" transform="translate(-111.75 -221.32)"/><path class="cls-1" d="M331.47,221.32A22.87,22.87,0,0,1,342.94,224a17.48,17.48,0,0,1,7.25,7.7,26.27,26.27,0,0,1,2.46,11.74,28.62,28.62,0,0,1-1.34,9.05,19.6,19.6,0,0,1-4.05,7.06,17.55,17.55,0,0,1-6.62,4.57,26.17,26.17,0,0,1-18,0,18.08,18.08,0,0,1-6.65-4.59,19.48,19.48,0,0,1-4-7.12,28.66,28.66,0,0,1-1.37-9,27.94,27.94,0,0,1,1.42-9.08,19.53,19.53,0,0,1,4.12-7,17.84,17.84,0,0,1,6.56-4.43A23.55,23.55,0,0,1,331.47,221.32Zm12.37,22.09a20.1,20.1,0,0,0-1.53-8.18A11.38,11.38,0,0,0,338,230a12,12,0,0,0-6.49-1.77,11.83,11.83,0,0,0-4.82,1,10.76,10.76,0,0,0-3.81,2.86,13.65,13.65,0,0,0-2.51,4.79,21.5,21.5,0,0,0-.93,6.55,22,22,0,0,0,.93,6.62,13.58,13.58,0,0,0,2.6,4.91,10.9,10.9,0,0,0,3.87,2.91,11.59,11.59,0,0,0,4.79,1,11.8,11.8,0,0,0,6.14-1.67,11.51,11.51,0,0,0,4.45-5.16A20,20,0,0,0,343.84,243.41Z" transform="translate(-111.75 -221.32)"/><path class="cls-1" d="M380.31,261.22v-1a17.74,17.74,0,0,1-3,3,11,11,0,0,1-3.45,1.83,14,14,0,0,1-4.28.6,11,11,0,0,1-5.2-1.2,8.76,8.76,0,0,1-3.56-3.31,14.59,14.59,0,0,1-1.5-7.32V238a5.19,5.19,0,0,1,1.09-3.59,3.7,3.7,0,0,1,2.87-1.19,3.81,3.81,0,0,1,2.93,1.2A5.13,5.13,0,0,1,367.3,238v12.8a19.83,19.83,0,0,0,.47,4.67,5.6,5.6,0,0,0,1.69,3,4.77,4.77,0,0,0,3.29,1.07,6.71,6.71,0,0,0,3.81-1.2,7,7,0,0,0,2.61-3.13q.68-1.71.67-7.45V238a5.09,5.09,0,0,1,1.12-3.58,3.76,3.76,0,0,1,2.9-1.2,3.72,3.72,0,0,1,2.87,1.19,5.19,5.19,0,0,1,1.08,3.59v23.17a5,5,0,0,1-1,3.43,3.71,3.71,0,0,1-5.39,0A4.83,4.83,0,0,1,380.31,261.22Z" transform="translate(-111.75 -221.32)"/><path class="cls-1" d="M417.69,261.16v-.79a19.85,19.85,0,0,1-3.18,3,11.65,11.65,0,0,1-3.39,1.76,12.8,12.8,0,0,1-4,.6,11.77,11.77,0,0,1-5.32-1.21,12.35,12.35,0,0,1-4.23-3.48,15.72,15.72,0,0,1-2.71-5.3,22.48,22.48,0,0,1-.93-6.59q0-7.5,3.67-11.69a12.18,12.18,0,0,1,9.63-4.19,12.94,12.94,0,0,1,5.83,1.19,15.93,15.93,0,0,1,4.63,3.65V226.3a6,6,0,0,1,1-3.72,3.35,3.35,0,0,1,2.8-1.26,3.44,3.44,0,0,1,2.8,1.16,5.16,5.16,0,0,1,1,3.41v35.27a4.91,4.91,0,0,1-1.05,3.43,3.55,3.55,0,0,1-2.73,1.14,3.5,3.5,0,0,1-2.71-1.18A4.92,4.92,0,0,1,417.69,261.16ZM402,249.41a13.71,13.71,0,0,0,1,5.54,7.77,7.77,0,0,0,2.77,3.44,6.77,6.77,0,0,0,3.84,1.16,7.1,7.1,0,0,0,3.85-1.1,7.49,7.49,0,0,0,2.78-3.37,13.49,13.49,0,0,0,1-5.67,13.15,13.15,0,0,0-1-5.49,8.24,8.24,0,0,0-2.81-3.51,6.71,6.71,0,0,0-3.88-1.22,6.56,6.56,0,0,0-3.93,1.24,8.14,8.14,0,0,0-2.68,3.58A14.27,14.27,0,0,0,402,249.41Z" transform="translate(-111.75 -221.32)"/><path class="cls-1" d="M455.6,251.44H440a10.55,10.55,0,0,0,1.1,4.8,7.33,7.33,0,0,0,6.75,4.19,9.34,9.34,0,0,0,2.62-.34,8.33,8.33,0,0,0,2.3-1,17.13,17.13,0,0,0,2-1.54c.63-.55,1.44-1.29,2.43-2.23a2.64,2.64,0,0,1,1.76-.52,2.87,2.87,0,0,1,2,.67,2.4,2.4,0,0,1,.77,1.9,5.28,5.28,0,0,1-.85,2.54,10,10,0,0,1-2.57,2.78,14.34,14.34,0,0,1-4.3,2.21,18.48,18.48,0,0,1-6,.88q-7.69,0-12-4.39t-4.27-11.93a19.94,19.94,0,0,1,1-6.57,14.4,14.4,0,0,1,3.08-5.2,13.16,13.16,0,0,1,5-3.33,17.89,17.89,0,0,1,6.56-1.16,15.56,15.56,0,0,1,8,2,13,13,0,0,1,5,5.11,13.49,13.49,0,0,1,1.67,6.39c0,2-.58,3.32-1.73,3.91A10.76,10.76,0,0,1,455.6,251.44ZM440,246.89h14.5c-.19-2.73-.93-4.78-2.21-6.13a6.61,6.61,0,0,0-5.05-2,6.39,6.39,0,0,0-4.91,2.07A10.22,10.22,0,0,0,440,246.89Z" transform="translate(-111.75 -221.32)"/><path class="cls-1" d="M476.87,254.19v6.68a5.17,5.17,0,0,1-1.14,3.65,3.8,3.8,0,0,1-2.9,1.21A3.66,3.66,0,0,1,470,264.5a5.26,5.26,0,0,1-1.11-3.63V238.6c0-3.59,1.29-5.39,3.89-5.39a3.24,3.24,0,0,1,2.87,1.26,6.92,6.92,0,0,1,1,3.72,14.18,14.18,0,0,1,2.94-3.72,6.09,6.09,0,0,1,4-1.26,10.29,10.29,0,0,1,4.89,1.26,3.76,3.76,0,0,1,2.38,3.34,3.35,3.35,0,0,1-3.2,3.37,10.07,10.07,0,0,1-2.12-.54,9.87,9.87,0,0,0-3-.54,4.35,4.35,0,0,0-2.87.92,5.89,5.89,0,0,0-1.73,2.74,18.77,18.77,0,0,0-.85,4.32Q476.87,250.58,476.87,254.19Z" transform="translate(-111.75 -221.32)"/><path class="cls-1" d="M519.47,255.27a9.29,9.29,0,0,1-6.37,9.25,21.34,21.34,0,0,1-7.66,1.21,18.74,18.74,0,0,1-7.39-1.32,10.68,10.68,0,0,1-4.54-3.29,6.68,6.68,0,0,1-1.46-4,3.07,3.07,0,0,1,.94-2.26,3.21,3.21,0,0,1,2.37-.93,2.76,2.76,0,0,1,1.93.61,6.77,6.77,0,0,1,1.29,1.73,7.71,7.71,0,0,0,7.62,4.25,6.79,6.79,0,0,0,3.94-1.07,3,3,0,0,0,1.54-2.45,3.3,3.3,0,0,0-1.6-3.07,19.65,19.65,0,0,0-5.26-1.85A43.58,43.58,0,0,1,498.1,250a11.22,11.22,0,0,1-4.15-3,6.83,6.83,0,0,1-1.55-4.54,8,8,0,0,1,1.44-4.54,9.81,9.81,0,0,1,4.23-3.41,16.19,16.19,0,0,1,6.75-1.28,22.15,22.15,0,0,1,5.58.65,13.7,13.7,0,0,1,4.13,1.73,8.33,8.33,0,0,1,2.52,2.4,4.69,4.69,0,0,1,.87,2.58,3,3,0,0,1-.92,2.25,3.65,3.65,0,0,1-2.63.88,3.18,3.18,0,0,1-2.09-.7,13.47,13.47,0,0,1-2-2.11,7.22,7.22,0,0,0-2.14-1.88,6.72,6.72,0,0,0-3.34-.7,6.59,6.59,0,0,0-3.6.92,2.71,2.71,0,0,0-1.44,2.3,2.49,2.49,0,0,0,1.06,2.07,8.64,8.64,0,0,0,2.84,1.33q1.79.52,4.92,1.29a26.47,26.47,0,0,1,6.08,2.17,10.13,10.13,0,0,1,3.57,3A6.53,6.53,0,0,1,519.47,255.27Z" transform="translate(-111.75 -221.32)"/></svg>