<svg xmlns="http://www.w3.org/2000/svg" xmlns:xlink="http://www.w3.org/1999/xlink" width="65" height="65" viewBox="0 0 65 65"><defs><style>.a{fill:#fff;stroke:#fff;stroke-width:3px;}.b{fill:#d93d3f;}.c{stroke:none;}.d{fill:none;}.e{filter:url(#a);}</style><filter id="a" x="0" y="0" width="65" height="65" filterUnits="userSpaceOnUse"><feOffset dy="2" input="SourceAlpha"/><feGaussianBlur stdDeviation="3.5" result="b"/><feFlood flood-opacity="0.161"/><feComposite operator="in" in2="b"/><feComposite in="SourceGraphic"/></filter></defs><g transform="translate(-776.5 -459.5)"><g class="e" transform="matrix(1, 0, 0, 1, 776.5, 459.5)"><g class="a" transform="translate(54.5 8.5) rotate(90)"><circle class="c" cx="22" cy="22" r="22"/><circle class="d" cx="22" cy="22" r="20.5"/></g></g><g transform="translate(798.428 482)"><path class="b" d="M329.217,344.38H310.248a1.338,1.338,0,0,1,0-2.675h18.973a1.338,1.338,0,0,1,0,2.675Z" transform="translate(-308.912 -335.089)"/><path class="b" d="M324.587,345.972l-6.6-6.6a1.338,1.338,0,1,1,1.888-1.9h0l6.6,6.6a1.338,1.338,0,0,1-1.893,1.893Z" transform="translate(-305.144 -337.091)"/><path class="b" d="M326.479,343.995l-6.6,6.6a1.338,1.338,0,1,1-1.9-1.888h0l6.6-6.6A1.338,1.338,0,1,1,326.476,344Z" transform="translate(-305.144 -335.085)"/></g></g></svg>
