<svg xmlns="http://www.w3.org/2000/svg" width="38.788" height="34.112" viewBox="0 0 38.788 34.112">
  <g id="Group_139" data-name="Group 139" opacity="0.995">
    <path id="Path_14" data-name="Path 14" d="M272.452,334.318a.932.932,0,0,1-.66-.272l-5.087-5.089H263.68a9.8,9.8,0,0,1,0-19.608h6.943a9.8,9.8,0,0,1,2.761,19.211v4.825a.931.931,0,0,1-.932.932Zm-8.772-23.1a7.939,7.939,0,0,0,0,15.879h3.411a.938.938,0,0,1,.66.272l3.768,3.768v-3.3a.935.935,0,0,1,.741-.914,7.939,7.939,0,0,0-1.638-15.707Z" transform="translate(-241.639 -300.205)" fill="#141a30"/>
    <path id="Path_15" data-name="Path 15" d="M255.957,329.914a.918.918,0,0,1-.355-.071.932.932,0,0,1-.577-.862v-4.825a9.8,9.8,0,0,1,2.761-19.211h6.943a9.8,9.8,0,0,1,0,19.61H261.7l-5.087,5.087A.932.932,0,0,1,255.957,329.914Zm1.829-23.1a7.938,7.938,0,0,0-1.636,15.7.935.935,0,0,1,.741.914v3.3l3.768-3.766a.932.932,0,0,1,.658-.274h3.411a7.938,7.938,0,1,0,0-15.877Z" transform="translate(-247.982 -304.945)" fill="#141a30"/>
    <path id="Path_16" data-name="Path 16" d="M268.031,314.374H259.3a.932.932,0,1,1,0-1.864h8.729a.932.932,0,1,1,0,1.864Z" transform="translate(-236.804 -296.803)" fill="#141a30"/>
    <path id="Path_17" data-name="Path 17" d="M269.429,316.466H258a.932.932,0,0,1,0-1.864h11.428a.932.932,0,0,1,0,1.864Z" transform="translate(-238.202 -294.552)" fill="#141a30"/>
    <path id="Path_18" data-name="Path 18" d="M263.538,310.082h-11.43a.933.933,0,1,1,0-1.866h11.43a.933.933,0,0,1,0,1.866Z" transform="translate(-244.547 -301.425)" fill="#141a30"/>
    <path id="Path_19" data-name="Path 19" d="M261.044,312.172h-8.936a.932.932,0,1,1,0-1.864h8.936a.932.932,0,1,1,0,1.864Z" transform="translate(-244.547 -299.173)" fill="#141a30"/>
  </g>
</svg>
