<svg xmlns="http://www.w3.org/2000/svg" xmlns:xlink="http://www.w3.org/1999/xlink" viewBox="0 0 196.0358 96.01235"><defs><linearGradient id="a" x1="147.03918" y1="4.97618" x2="57.54954" y2="68.32278" gradientUnits="userSpaceOnUse"><stop offset="0" stop-color="#cd1437"/><stop offset="1" stop-color="#ef7b4d"/></linearGradient><linearGradient id="b" x1="175.23675" y1="47.07372" x2="38.10808" y2="144.14233" gradientUnits="userSpaceOnUse"><stop offset="0" stop-color="#cc1237"/><stop offset="1" stop-color="#ef7b4d"/></linearGradient><linearGradient id="c" x1="182.17905" y1="56.8811" x2="45.05038" y2="153.94971" xlink:href="#b"/><linearGradient id="d" x1="184.17233" y1="59.697" x2="47.04366" y2="156.76561" xlink:href="#b"/><linearGradient id="e" x1="188.58514" y1="65.93097" x2="51.45647" y2="162.99958" xlink:href="#b"/><linearGradient id="f" x1="190.52412" y1="68.67017" x2="53.39545" y2="165.73878" xlink:href="#b"/><linearGradient id="g" x1="193.67653" y1="73.12357" x2="56.54786" y2="170.19217" xlink:href="#b"/><linearGradient id="h" x1="198.0098" y1="79.24517" x2="60.88112" y2="176.31378" xlink:href="#b"/></defs><title>ZAZ_LG_5_6</title><path d="M50.57,63.856H3.12273C1.4107,63.856,0,63.13131,0,61.76446V53.31982A11.6967,11.6967,0,0,1,1.81288,47.3672l24.07663-29.676a1.49735,1.49735,0,0,0,.40218-.96622c0-.32207-.30133-.56167-1.10814-.56167H3.12273a1.85231,1.85231,0,0,1-2.01459-1.60841V1.605c0-.88571.90644-1.52789,2.01459-1.52789H49.05847c1.30985,0,2.6197.24156,2.6197,1.28633v12.1447c0,.88571-.40341,2.4136-3.22358,5.872L26.49339,46.2419a1.31932,1.31932,0,0,0-.40218.88571c0,.40063.40218.64219,1.20777.64219H50.57c1.10814,0,2.01459.64415,2.01459,1.52789V62.24757A1.85231,1.85231,0,0,1,50.57,63.856Z" style="fill:#151b30"/><path d="M194.02121,63.856H146.57392c-1.712,0-3.12273-.72467-3.12273-2.09152V51.30869c0-1.20582.503-2.25256,1.81288-3.94149l24.07663-29.676a1.49735,1.49735,0,0,0,.40218-.96622c0-.32207-.30133-.56167-1.10814-.56167H146.57392a1.85231,1.85231,0,0,1-2.01458-1.60841V1.605c0-.88571.90644-1.52789,2.01458-1.52789h45.93574c1.30985,0,2.6197.24156,2.6197,1.28633v12.1447c0,.88571-.40341,2.4136-3.22358,5.872L169.94458,46.2419a1.31932,1.31932,0,0,0-.40218.88571c0,.40063.40218.64219,1.20777.64219h23.271c1.10814,0,2.01459.64415,2.01459,1.52789V62.24757A1.85231,1.85231,0,0,1,194.02121,63.856Z" style="fill:#151b30"/><path d="M130.85817,62.14778,117.36,10.1181C115.14364,1.70022,107.58839,0,98.01845,0,88.44741,0,80.89326,1.70022,78.677,10.1181L65.17751,62.14778c0,.17024-.10077.2553-.10077.42555,0,.76395.70589,1.35973,1.71323,1.35973H80.56124a6.984,6.984,0,0,1,1.30008-2.3861,4.72285,4.72285,0,0,1,.52779-.51331,3.76354,3.76354,0,0,1,2.23611-.78285,17.04941,17.04941,0,0,0,2.31319-.16558c.03707-.0054.07365-.01068.11059-.01694.15085-.02406.23309-.04087.23309-.04087l-.0027-.01006c.10642-.023.21443-.04038.31888-.07033a3.84738,3.84738,0,0,0,1.86752-1.12346c.61-.71718.68429-2.12135.74394-3.24971a8.81988,8.81988,0,0,1,.09648-1.09915,2.31936,2.31936,0,0,1,.559-.92142,2.06589,2.06589,0,0,0,.6347-1.27443,1.80206,1.80206,0,0,0-.39106-1.10308,2.72991,2.72991,0,0,0,.76407-1.565,5.13,5.13,0,0,0-.07463-1.2149,2.10911,2.10911,0,0,1-.04-.66146c.00859-.04726.07549-.22057.57676-.46654a9.36124,9.36124,0,0,1,1.26093-.46519c.18939-.05965.353-.11108.48164-.15944a1.30774,1.30774,0,0,0,.96991-1.47131c-.04222-.23836-.26537-.5478-1.59172-2.20653-.80261-1.00378-1.71225-2.1416-2.07912-2.74512-.686-1.129-1.5452-4.8213-1.87685-6.94191a16.10838,16.10838,0,0,0-1.11548-3.94382.7271.7271,0,0,1,.57787-1.00562,14.3266,14.3266,0,0,1,2.44919-.127c.68858-.01485,1.32574.00994,1.65984.02725a2.34352,2.34352,0,0,0,.93775-.23456l.15969-.69852a2.95577,2.95577,0,0,0-.7621-.80973l-.00184-.00147c-2.27981-1.82615-5.11367-6.21307.59456-12.30181.84667-1.14481,1.72317-1.27934,1.87537-2.76623a2.18472,2.18472,0,0,1,.033-.58511,1.77513,1.77513,0,0,1,1.3277-1.70452,2.25689,2.25689,0,0,1,.71117-.1441h.12642a2.27233,2.27233,0,0,1,.68686.13354,1.78507,1.78507,0,0,1,1.36906,1.80308,2.19082,2.19082,0,0,1,.02148.44813c.13833,1.54213,1.0341,1.65787,1.89415,2.83264l.01547.02443c5.65631,6.067,2.82932,10.438.55479,12.26l-.00184.00147a2.99144,2.99144,0,0,0-.74934.7923l.16693.73007a2.43221,2.43221,0,0,0,.91774.22044c.3341-.01731.97126-.0421,1.65984-.02725a14.3403,14.3403,0,0,1,2.44821.12679.72377.72377,0,0,1,.57578,1.00121,16.10665,16.10665,0,0,0-1.11732,3.94848c-.33165,2.12061-1.191,5.81293-1.87685,6.94191-.36688.60352-1.27664,1.74134-2.07925,2.74512-1.32635,1.65873-1.54949,1.96817-1.59172,2.20653a1.30785,1.30785,0,0,0,.96991,1.47131c.12863.04836.29225.09979.48176.15944a9.36591,9.36591,0,0,1,1.2608.46519c.5014.246.56829.41929.57676.46654a2.10911,2.10911,0,0,1-.04.66146,5.1365,5.1365,0,0,0-.07463,1.2149,2.72991,2.72991,0,0,0,.76407,1.565,1.80206,1.80206,0,0,0-.39106,1.10308,2.06589,2.06589,0,0,0,.6347,1.27443,2.318,2.318,0,0,1,.559.92142,8.81989,8.81989,0,0,1,.09648,1.09915c.05965,1.12837.13391,2.53253.74394,3.24971a3.84738,3.84738,0,0,0,1.86752,1.12346c.102.02921.20731.046.31127.06874l-.00319.01166s.09193.0189.26242.04554l.06616.01006a17.02494,17.02494,0,0,0,2.32817.16779,3.79708,3.79708,0,0,1,2.48675.99139c.10163.0977.19884.19921.29053.30477a6.98335,6.98335,0,0,1,1.3,2.3861H129.3466c1.00734,0,1.61246-.51061,1.61246-1.35973A3.18265,3.18265,0,0,1,130.85817,62.14778Z" style="fill:url(#a)"/><path d="M128.29786,91.169a8.1306,8.1306,0,0,1-3.55646-.65579,8.248,8.248,0,0,1-3.58255.65579c-3.02676,0-5.70062-1.38693-5.70062-6.53322V77.2192a.50041.50041,0,0,1,.50434-.479h2.27025a.50105.50105,0,0,1,.50434.479v7.41654c0,3.55718,1.46374,3.65791,3.22893,3.65791h1.08476V77.24456a.50626.50626,0,0,1,.50506-.50434h2.34561a.50563.50563,0,0,1,.50434.50434V88.29365h1.08476c1.81663,0,3.22893-.10072,3.22893-3.65791V77.2192a.50172.50172,0,0,1,.50506-.479h2.27025a.50041.50041,0,0,1,.50434.479v7.41654C133.99921,89.782,131.32534,91.169,128.29786,91.169Z" style="fill:url(#b)"/><path d="M148.40548,85.014h-8.22377v.07609c0,1.463.60579,3.20357,3.02748,3.20357,1.84127,0,3.58182-.15145,4.64122-.25217h.07609c.25217,0,.45362.12608.45362.37825v1.66519c0,.40362-.07536.5797-.5297.65579a22.47084,22.47084,0,0,1-4.89339.42825c-2.52314,0-6.105-1.36157-6.105-6.331V82.97055c0-3.93471,2.19489-6.40713,6.05424-6.40713,3.88471,0,6.00352,2.6485,6.00352,6.40713v1.413C148.90982,84.78719,148.75837,85.014,148.40548,85.014Zm-2.85067-2.4717c0-1.96808-1.08476-3.10284-2.6485-3.10284s-2.69923,1.1094-2.69923,3.10284V82.643h5.34773Z" style="fill:url(#c)"/><path d="M154.7387,90.96751h-2.34634a.528.528,0,0,1-.50434-.5297V72.27509a.50563.50563,0,0,1,.50434-.50434h2.34634a.48453.48453,0,0,1,.479.50434V90.43781A.507.507,0,0,1,154.7387,90.96751Z" style="fill:url(#d)"/><path d="M167.83122,90.96751h-8.82883a1.01236,1.01236,0,0,1-1.0094-1.00868V88.87407a1.28781,1.28781,0,0,1,.32826-.80723l6.105-8.40058c.05-.07536.07536-.10072.07536-.15145,0-.05-.07536-.07536-.15145-.07536H158.6495a.41241.41241,0,0,1-.45434-.40362V77.24456a.50563.50563,0,0,1,.50434-.50434h8.57738a1.0338,1.0338,0,0,1,1.00868,1.034v1.43766a1.50269,1.50269,0,0,1-.12608.58042l-5.87743,8.047-.05072.10072c0,.05072.07536.07609.15145.07609h5.49918a.41241.41241,0,0,1,.45434.40362v2.04344A.50626.50626,0,0,1,167.83122,90.96751Z" style="fill:url(#e)"/><path d="M173.963,74.84823h-2.44706a.528.528,0,0,1-.5297-.50434V72.12364a.528.528,0,0,1,.5297-.50434H173.963a.50563.50563,0,0,1,.50434.50434v2.22025A.50563.50563,0,0,1,173.963,74.84823Zm-.07609,16.11928h-2.32025a.52861.52861,0,0,1-.50506-.5297V77.24456a.50626.50626,0,0,1,.50506-.50434h2.32025a.50563.50563,0,0,1,.50434.50434V90.43781A.528.528,0,0,1,173.88691,90.96751Z" style="fill:url(#f)"/><path d="M177.41873,96.01235a9.72957,9.72957,0,0,1-1.66446-.15072c-.32826-.05072-.4797-.20217-.4797-.45434V93.76746c0-.25217.20217-.40362.5297-.40362h1.13549c.80723,0,.88259-.32753.88259-1.33693V77.24456a.50626.50626,0,0,1,.50506-.50434h2.32025a.50563.50563,0,0,1,.50434.50434V92.02691C181.152,95.10439,179.76507,96.01235,177.41873,96.01235Zm3.27965-21.16412h-2.4217a.50563.50563,0,0,1-.50434-.50434V72.12364a.50563.50563,0,0,1,.50434-.50434h2.4217a.528.528,0,0,1,.5297.50434v2.22025A.528.528,0,0,1,180.69838,74.84823Z" style="fill:url(#g)"/><path d="M195.55682,90.96751h-2.3717a.507.507,0,0,1-.479-.5297V81.7097c0-1.23621-.25217-2.3717-1.71519-2.3717h-1.56447c-1.463,0-1.71519,1.13549-1.71519,2.3717v8.72811a.507.507,0,0,1-.479.5297h-2.3717a.507.507,0,0,1-.479-.5297V81.7097c0-3.05212,1.76591-5.14629,5.04484-5.14629H190.991c3.27893,0,5.04484,2.09417,5.04484,5.14629v8.72811A.507.507,0,0,1,195.55682,90.96751Z" style="fill:url(#h)"/></svg>