<?xml version="1.0" encoding="UTF-8"?>
<svg width="22px" height="22px" viewBox="0 0 22 22" version="1.1" xmlns="http://www.w3.org/2000/svg" xmlns:xlink="http://www.w3.org/1999/xlink">
    <!-- Generator: Sketch 50.2 (55047) - http://www.bohemiancoding.com/sketch -->
    <title>Artboard 1</title>
    <desc>Created with Sketch.</desc>
    <defs></defs>
    <g id="Artboard-1" stroke="none" stroke-width="1" fill="none" fill-rule="evenodd">
        <g id="Group-10" transform="translate(0.000000, 1.000000)" fill="#61758C">
            <path d="M17.4159,11.7939 L11.7379,11.7939 C11.4629,11.7939 11.2379,12.0189 11.2379,12.2949 C11.2379,12.5689 11.4629,12.7939 11.7379,12.7939 L17.4159,12.7939 C17.6909,12.7939 17.9159,12.5689 17.9159,12.2949 C17.9159,12.0189 17.6909,11.7939 17.4159,11.7939" id="Fill-2"></path>
            <path d="M4.0849,4.5469 C4.0859,4.8219 4.3109,5.0469 4.5859,5.0469 L10.2669,5.0469 C10.5419,5.0459 10.7659,4.8219 10.7659,4.5469 C10.7669,4.2719 10.5429,4.0469 10.2669,4.0459 L4.5859,4.0459 C4.3089,4.0469 4.0849,4.2719 4.0849,4.5469" id="Fill-4"></path>
            <path d="M17.4159,9.2524 L11.7379,9.2524 C11.4629,9.2524 11.2379,9.4774 11.2379,9.7524 C11.2379,10.0274 11.4629,10.2524 11.7379,10.2524 L17.4159,10.2524 C17.6909,10.2524 17.9159,10.0274 17.9159,9.7524 C17.9159,9.4774 17.6909,9.2524 17.4159,9.2524" id="Fill-6"></path>
            <path d="M17.0751,15.6934 L17.0741,15.6934 C16.8451,15.7424 16.6781,15.9474 16.6781,16.1834 L16.6781,18.2194 L16.6001,18.1434 L14.3981,15.9414 C14.3041,15.8484 14.1781,15.7974 14.0451,15.7954 L13.0521,15.7954 C10.6311,15.7954 8.5801,13.9084 8.3831,11.4994 C8.3831,11.4994 8.3561,10.8914 8.4211,10.3974 C8.5651,9.2894 9.1531,8.2804 10.0091,7.5484 L10.0211,7.5374 C10.0801,7.4854 10.1421,7.4354 10.2121,7.3844 L10.2201,7.3784 C11.0401,6.7554 12.0191,6.4264 13.0521,6.4264 L13.1501,6.4264 L13.5961,6.4264 L14.6041,6.4264 L16.1081,6.4254 C18.3081,6.4254 20.2361,7.9884 20.6911,10.1424 C21.2241,12.6704 19.6021,15.1604 17.0751,15.6934 M7.3751,10.8164 L5.3321,12.8744 L5.3321,10.8374 C5.3321,10.6014 5.1651,10.3954 4.9341,10.3464 C2.7961,9.8884 1.2381,7.9684 1.2311,5.7814 C1.2231,3.1994 3.3181,1.0914 5.9001,1.0824 L8.9571,1.0814 C11.3771,1.0814 13.4281,2.9674 13.6251,5.3754 L13.6291,5.4234 L13.3851,5.4244 L13.0521,5.4244 C11.8001,5.4244 10.6111,5.8234 9.6171,6.5784 L9.6051,6.5874 L4.5901,6.5874 C4.3141,6.5874 4.0901,6.8114 4.0901,7.0874 C4.0901,7.3624 4.3141,7.5864 4.5901,7.5864 L8.5871,7.5864 L8.5321,7.6584 C7.8321,8.5754 7.4321,9.6674 7.3751,10.8164 M16.1261,5.4244 L14.6301,5.4244 L14.6291,5.3794 C14.4321,2.4094 11.9411,0.0804 8.9571,0.0804 L5.8851,0.0804 C3.3731,0.0804 1.1291,1.7654 0.4281,4.1774 C0.0041,5.6344 0.1741,7.1704 0.9051,8.5004 C1.6361,9.8304 2.8421,10.7964 4.2991,11.2184 L4.3311,11.2284 L4.3311,14.0824 C4.3311,14.2854 4.4531,14.4654 4.6411,14.5454 C4.7011,14.5694 4.7641,14.5824 4.8311,14.5824 C4.9651,14.5824 5.0901,14.5304 5.1811,14.4364 L7.3871,12.2324 L7.4631,12.1544 L7.4791,12.2384 C8.0121,14.8774 10.3551,16.7934 13.0521,16.7934 L13.8381,16.7934 L13.8511,16.8054 L16.8251,19.7804 C16.9191,19.8744 17.0441,19.9254 17.1781,19.9254 C17.4541,19.9244 17.6781,19.7004 17.6781,19.4254 L17.6781,16.5734 L17.7101,16.5634 C20.1291,15.8594 21.8131,13.6094 21.8061,11.0904 C21.7981,7.9664 19.2501,5.4244 16.1261,5.4244" id="Fill-8"></path>
        </g>
    </g>
</svg>