<?xml version="1.0" encoding="UTF-8"?>
<svg width="22px" height="22px" viewBox="0 0 22 22" version="1.1" xmlns="http://www.w3.org/2000/svg" xmlns:xlink="http://www.w3.org/1999/xlink">
    <!-- Generator: Sketch 50.2 (55047) - http://www.bohemiancoding.com/sketch -->
    <title>Artboard 1</title>
    <desc>Created with Sketch.</desc>
    <defs></defs>
    <g id="Artboard-1" stroke="none" stroke-width="1" fill="none" fill-rule="evenodd">
        <g id="Group-10" transform="translate(2.000000, 0.000000)" fill="#fff">
            <path d="M11.3147,14.2363 L5.6747,14.2363 C5.3987,14.2363 5.1747,14.4603 5.1747,14.7363 C5.1747,15.0123 5.3987,15.2363 5.6747,15.2363 L11.3147,15.2363 C11.5907,15.2363 11.8147,15.0123 11.8147,14.7363 C11.8147,14.4603 11.5907,14.2363 11.3147,14.2363" id="Fill-2"></path>
            <path d="M12.8498,12.1592 L5.6748,12.1592 C5.3988,12.1592 5.1748,12.3832 5.1748,12.6592 C5.1748,12.9352 5.3988,13.1592 5.6748,13.1592 L12.8498,13.1592 C13.1258,13.1592 13.3498,12.9352 13.3498,12.6592 C13.3498,12.3832 13.1258,12.1592 12.8498,12.1592" id="Fill-4"></path>
            <path d="M16.3616,19.6973 C16.3616,20.0603 16.0656,20.3563 15.7026,20.3563 L2.6476,20.3563 C2.2846,20.3563 1.9886,20.0603 1.9886,19.6973 L1.9886,17.8013 L2.3916,17.8013 C2.6686,17.8013 2.8916,17.5773 2.8916,17.3013 C2.8916,17.0243 2.6686,16.8013 2.3916,16.8013 L1.9886,16.8013 L1.9886,13.5813 L2.3916,13.5813 C2.6686,13.5813 2.8916,13.3573 2.8916,13.0813 C2.8916,12.8043 2.6686,12.5813 2.3916,12.5813 L1.9886,12.5813 L1.9886,9.3613 L2.3916,9.3613 C2.6686,9.3613 2.8916,9.1373 2.8916,8.8613 C2.8916,8.5843 2.6686,8.3613 2.3916,8.3613 L1.9886,8.3613 L1.9886,5.1413 L2.3916,5.1413 C2.6686,5.1413 2.8916,4.9173 2.8916,4.6413 C2.8916,4.3643 2.6686,4.1413 2.3916,4.1413 L1.9886,4.1413 L1.9886,2.3033 C1.9886,1.9403 2.2846,1.6443 2.6476,1.6443 L15.7026,1.6443 C16.0656,1.6443 16.3616,1.9403 16.3616,2.3033 L16.3616,19.6973 Z M15.7026,0.6443 L2.6476,0.6443 C1.7326,0.6443 0.9886,1.3883 0.9886,2.3033 L0.9886,4.1413 L0.5486,4.1413 C0.2726,4.1413 0.0496,4.3643 0.0496,4.6413 C0.0496,4.9173 0.2726,5.1413 0.5486,5.1413 L0.9886,5.1413 L0.9886,8.3613 L0.5486,8.3613 C0.2726,8.3613 0.0496,8.5843 0.0496,8.8613 C0.0496,9.1373 0.2726,9.3613 0.5486,9.3613 L0.9886,9.3613 L0.9886,12.5813 L0.5486,12.5813 C0.2726,12.5813 0.0496,12.8043 0.0496,13.0813 C0.0496,13.3573 0.2726,13.5813 0.5486,13.5813 L0.9886,13.5813 L0.9886,16.8013 L0.5486,16.8013 C0.2726,16.8013 0.0496,17.0243 0.0496,17.3013 C0.0496,17.5773 0.2726,17.8013 0.5486,17.8013 L0.9886,17.8013 L0.9886,19.6973 C0.9886,20.6123 1.7326,21.3563 2.6476,21.3563 L15.7026,21.3563 C16.6176,21.3563 17.3616,20.6123 17.3616,19.6973 L17.3616,2.3033 C17.3616,1.3883 16.6176,0.6443 15.7026,0.6443 Z" id="Fill-6"></path>
            <path d="M12.3498,9.1079 C12.3498,9.3429 12.1588,9.5349 11.9218,9.5349 L6.6028,9.5349 C6.3668,9.5349 6.1748,9.3429 6.1748,9.1079 L6.1748,6.1039 C6.1748,5.8679 6.3668,5.6769 6.6028,5.6769 L11.9218,5.6769 C12.1588,5.6769 12.3498,5.8679 12.3498,6.1039 L12.3498,9.1079 Z M11.9218,4.6769 L6.6028,4.6769 C5.8158,4.6769 5.1748,5.3169 5.1748,6.1039 L5.1748,9.1079 C5.1748,9.8949 5.8158,10.5349 6.6028,10.5349 L11.9218,10.5349 C12.7088,10.5349 13.3498,9.8949 13.3498,9.1079 L13.3498,6.1039 C13.3498,5.3169 12.7088,4.6769 11.9218,4.6769 Z" id="Fill-8"></path>
        </g>
    </g>
</svg>
