<svg xmlns="http://www.w3.org/2000/svg" width="37.277" height="37.277" viewBox="0 0 37.277 37.277">
  <g id="Element" opacity="0.995">
    <path id="Path_2" data-name="Path 2" d="M284.184,263.758h-1.269a16.461,16.461,0,0,0-15.505-15.505v-1.271a.932.932,0,0,0-1.864,0v1.271a16.461,16.461,0,0,0-15.505,15.505h-1.269a.931.931,0,1,0,0,1.862h1.269a16.461,16.461,0,0,0,15.505,15.505V282.4a.932.932,0,1,0,1.864,0v-1.271a16.461,16.461,0,0,0,15.505-15.505h1.269a.931.931,0,1,0,0-1.862Zm-7.383-9.393a14.491,14.491,0,0,1,4.246,9.393h-2.8a11.823,11.823,0,0,0-10.836-10.836v-2.8A14.49,14.49,0,0,1,276.8,254.365Zm-10.323,15.6a5.281,5.281,0,1,1,5.28-5.28A5.287,5.287,0,0,1,266.478,269.97Zm-.932-12.364a7.159,7.159,0,0,0-6.152,6.152h-2.813a9.959,9.959,0,0,1,8.965-8.965Zm-6.152,8.014a7.161,7.161,0,0,0,6.152,6.154v2.811a9.959,9.959,0,0,1-8.965-8.965Zm8.016,6.154a7.163,7.163,0,0,0,6.152-6.154h2.811a9.955,9.955,0,0,1-8.963,8.965Zm6.152-8.016a7.161,7.161,0,0,0-6.152-6.152v-2.813a9.955,9.955,0,0,1,8.963,8.965Zm-17.407-9.393a14.485,14.485,0,0,1,9.391-4.246v2.8a11.823,11.823,0,0,0-10.836,10.836h-2.8A14.493,14.493,0,0,1,256.155,254.365Zm0,20.648a14.493,14.493,0,0,1-4.248-9.393h2.8a11.823,11.823,0,0,0,10.836,10.836v2.8A14.485,14.485,0,0,1,256.155,275.013Zm20.646,0a14.49,14.49,0,0,1-9.391,4.246v-2.8a11.823,11.823,0,0,0,10.836-10.836h2.8A14.491,14.491,0,0,1,276.8,275.013Z" transform="translate(-247.84 -246.052)" fill="#c70d30"/>
    <path id="Path_3" data-name="Path 3" d="M261.424,253.922a.933.933,0,0,0-1.306.179l-2.051,2.7-1.26-1.175a.931.931,0,1,0-1.271,1.362l2.014,1.879a.927.927,0,0,0,.635.249c.025,0,.052,0,.079,0a.937.937,0,0,0,.662-.365l2.674-3.517A.933.933,0,0,0,261.424,253.922Z" transform="translate(-239.877 -237.786)" fill="#c70d30"/>
  </g>
</svg>
