<?xml version="1.0" encoding="UTF-8"?>
<svg width="22px" height="22px" viewBox="0 0 22 22" version="1.1" xmlns="http://www.w3.org/2000/svg" xmlns:xlink="http://www.w3.org/1999/xlink">
    <!-- Generator: Sketch 50.2 (55047) - http://www.bohemiancoding.com/sketch -->
    <title>Artboard 1</title>
    <desc>Created with Sketch.</desc>
    <defs></defs>
    <g id="Artboard-1" stroke="none" stroke-width="1" fill="none" fill-rule="evenodd">
        <g id="Group-6" transform="translate(1.000000, 1.000000)" fill="#fff">
            <path d="M13.7634,9.5005 L10.5004,9.5005 L10.5004,6.2365 C10.5004,5.9605 10.2774,5.7365 10.0004,5.7365 C9.7244,5.7365 9.5004,5.9605 9.5004,6.2365 L9.5004,9.5005 L6.2374,9.5005 C5.9604,9.5005 5.7374,9.7245 5.7374,10.0005 C5.7374,10.2765 5.9604,10.5005 6.2374,10.5005 L9.5004,10.5005 L9.5004,13.7635 C9.5004,14.0405 9.7244,14.2635 10.0004,14.2635 C10.2774,14.2635 10.5004,14.0405 10.5004,13.7635 L10.5004,10.5005 L13.7634,10.5005 C14.0394,10.5005 14.2634,10.2765 14.2634,10.0005 C14.2634,9.7245 14.0394,9.5005 13.7634,9.5005" id="Fill-2"></path>
            <path d="M10.0007,18.6328 C5.2397,18.6328 1.3667,14.7608 1.3667,10.0008 C1.3667,5.2398 5.2397,1.3668 10.0007,1.3668 C14.7607,1.3668 18.6337,5.2398 18.6337,10.0008 C18.6337,14.7608 14.7607,18.6328 10.0007,18.6328 M10.0007,0.3668 C4.6887,0.3668 0.3667,4.6888 0.3667,10.0008 C0.3667,15.3118 4.6887,19.6328 10.0007,19.6328 C15.3127,19.6328 19.6337,15.3118 19.6337,10.0008 C19.6337,4.6888 15.3127,0.3668 10.0007,0.3668" id="Fill-4"></path>
        </g>
    </g>
</svg>
