<?xml version="1.0" encoding="UTF-8"?>
<svg width="22px" height="22px" viewBox="0 0 22 22" version="1.1" xmlns="http://www.w3.org/2000/svg" xmlns:xlink="http://www.w3.org/1999/xlink">
    <!-- Generator: Sketch 50.2 (55047) - http://www.bohemiancoding.com/sketch -->
    <title>Artboard 1</title>
    <desc>Created with Sketch.</desc>
    <defs></defs>
    <g id="Artboard-1" stroke="none" stroke-width="1" fill="none" fill-rule="evenodd">
        <path d="M20.1649,4.4647 L19.2269,5.9727 L19.2139,5.9647 L16.2899,4.1437 L16.2979,4.1317 L17.2339,2.6247 L17.2469,2.6317 L20.1729,4.4517 L20.1649,4.4647 Z M18.6899,6.8267 L11.6909,18.0767 L11.6859,18.0787 L8.8499,19.3627 L8.8499,19.3407 L8.7539,16.2487 L8.7559,16.2447 L15.7649,4.9867 L15.7769,4.9947 L16.8109,5.6387 L16.8029,5.6517 L10.1419,16.3567 C10.0119,16.5837 10.0989,16.8897 10.3329,17.0247 C10.5519,17.1487 10.8469,17.0797 10.9869,16.8707 L17.6499,6.1637 L17.6629,6.1717 L18.6979,6.8147 L18.6899,6.8267 Z M21.3489,4.1927 C21.3189,4.0647 21.2419,3.9537 21.1319,3.8827 L17.3399,1.5207 C17.1159,1.3827 16.7959,1.4577 16.6549,1.6807 L7.8339,15.8507 C7.7819,15.9327 7.7549,16.0297 7.7579,16.1257 L7.8369,18.6697 C7.4229,18.4337 6.8989,18.2507 6.2319,18.2507 C5.1879,18.2507 4.6309,18.6327 4.1829,18.9407 C4.0279,19.0457 3.8829,19.1497 3.7149,19.2237 C2.7399,19.6517 1.8299,19.1147 1.6909,18.9917 C1.4879,18.8087 1.1719,18.8217 0.9849,19.0267 C0.7999,19.2307 0.8139,19.5467 1.0189,19.7327 C1.2949,19.9837 2.6329,20.7887 4.1179,20.1387 C4.3569,20.0327 4.5559,19.8967 4.7479,19.7647 C5.1499,19.4887 5.4979,19.2507 6.2319,19.2507 C7.5469,19.2507 8.1009,20.2357 8.1269,20.2827 C8.2169,20.4517 8.3899,20.5487 8.5679,20.5487 C8.6459,20.5487 8.7269,20.5297 8.7999,20.4907 C8.8019,20.4897 8.8029,20.4877 8.8049,20.4867 L8.8119,20.4877 L12.2419,18.9277 C12.3299,18.8877 12.4039,18.8227 12.4569,18.7397 L21.2799,4.5677 C21.3519,4.4557 21.3759,4.3227 21.3489,4.1927 Z" id="Fill-2" fill="#c70d30"></path>
    </g>
</svg>
