<?xml version="1.0" encoding="UTF-8"?>
<svg width="22px" height="22px" viewBox="0 0 22 22" version="1.1" xmlns="http://www.w3.org/2000/svg" xmlns:xlink="http://www.w3.org/1999/xlink">
    <!-- Generator: Sketch 50.2 (55047) - http://www.bohemiancoding.com/sketch -->
    <title>Artboard 1</title>
    <desc>Created with Sketch.</desc>
    <defs></defs>
    <g id="Artboard-1" stroke="none" stroke-width="1" fill="none" fill-rule="evenodd">
        <g id="Group-22" transform="translate(2.000000, 0.000000)" fill="#fff">
            <path d="M16.1195,9.6157 C15.7065,10.3627 15.2965,11.0917 14.8135,11.7977 C13.8215,13.2517 13.5675,14.1517 13.7245,15.6507 L13.7255,15.6617 L13.7165,15.6657 C11.6255,16.5117 10.2735,18.1597 9.1265,19.8167 L9.1115,19.8367 L9.0415,19.6977 C8.7235,19.0467 8.3955,18.3737 8.0875,17.7107 C7.8145,17.0607 7.1835,16.6417 6.4785,16.6417 C6.4535,16.6417 6.4295,16.6427 6.4035,16.6447 L6.3925,16.6447 C6.1285,16.6447 5.6365,16.6757 5.2015,16.7047 L5.1925,16.7047 C4.9325,16.7227 4.5405,16.7477 4.4455,16.7477 L4.4395,16.7477 C4.2285,16.7437 4.0165,16.7187 3.8115,16.6737 L3.8035,16.6717 L3.8005,16.6637 C3.7405,16.4807 3.7045,16.2927 3.6935,16.1047 C3.6145,15.4847 3.5205,14.9417 3.4155,14.4887 C3.2375,13.7147 2.9955,12.9907 2.4285,12.9197 C2.1085,12.8497 1.8145,12.7167 1.5555,12.5237 L1.5445,12.5157 L1.5515,12.5037 C1.6975,12.2437 1.9655,11.8767 2.2235,11.5217 L2.2625,11.4697 C2.5245,11.1297 2.7685,10.7697 2.9875,10.4007 C3.3065,9.8807 3.3525,9.2347 3.1135,8.6737 C2.5935,7.4767 2.7095,6.1117 3.4235,5.0207 C3.9275,4.0117 4.6975,3.1567 5.6495,2.5507 C6.6265,1.9567 7.8015,1.6677 9.2395,1.6677 C9.5965,1.6677 9.9735,1.6857 10.3625,1.7217 C11.4385,1.7977 12.4775,2.0727 13.4505,2.5357 C14.1305,2.8747 14.7355,3.3737 15.1995,3.9777 C15.8815,4.9737 16.2995,6.1687 16.4435,7.5297 C16.5445,8.4577 16.4685,8.9457 16.1195,9.6157 M17.4455,7.3977 C17.3685,6.7387 17.2345,6.0807 17.0465,5.4427 C16.8235,4.6927 16.4735,3.9947 16.0065,3.3677 C14.8525,1.8447 12.9875,0.9537 10.4625,0.7197 C10.0365,0.6797 9.6265,0.6607 9.2405,0.6607 C7.6135,0.6607 6.2705,0.9967 5.1335,1.6897 C4.0385,2.3927 3.1445,3.3747 2.5505,4.5287 C1.6815,5.8977 1.5525,7.6017 2.2025,9.0857 C2.3175,9.3657 2.2805,9.6807 2.1045,9.9297 C1.9075,10.2507 1.6895,10.5687 1.4555,10.8737 C1.1215,11.2977 0.8225,11.7517 0.5675,12.2247 C0.4665,12.4527 0.4815,12.7207 0.6105,12.9357 C0.9995,13.4317 1.5545,13.7717 2.1715,13.8907 L2.1795,13.8927 L2.1815,13.9007 C2.4595,14.6467 2.6325,15.4277 2.6955,16.2237 C2.6865,16.6737 2.8485,17.1037 3.1515,17.4367 C3.4725,17.6447 3.8485,17.7557 4.2345,17.7557 C4.2785,17.7557 4.3255,17.7547 4.3825,17.7517 L4.4465,17.7517 C4.5705,17.7517 4.7875,17.7407 5.2595,17.7087 C5.6385,17.6837 6.1575,17.6497 6.3985,17.6497 C6.4245,17.6477 6.4475,17.6467 6.4685,17.6467 C6.7865,17.6467 7.0645,17.8377 7.1785,18.1347 C7.4785,18.7817 7.7975,19.4327 8.1045,20.0637 L8.1715,20.1997 C8.3105,20.4857 8.4505,20.7717 8.5895,21.0567 C8.6665,21.2187 8.8265,21.3267 9.0055,21.3397 L9.0405,21.3397 C9.2075,21.3397 9.3635,21.2567 9.4565,21.1177 C10.9235,18.9457 12.2215,17.2227 14.4365,16.4697 C14.6655,16.3927 14.8075,16.1627 14.7725,15.9237 C14.5575,14.3837 14.7205,13.7187 15.6465,12.3657 C16.1585,11.6157 16.6135,10.8027 16.9995,10.1007 C17.4335,9.2787 17.5925,8.3187 17.4455,7.3977" id="Fill-2"></path>
            <path d="M9.5609,9.4893 C9.6239,9.5173 9.6899,9.5313 9.7579,9.5313 C9.9589,9.5313 10.1409,9.4113 10.2199,9.2263 L10.8749,7.6993 C10.9279,7.5753 10.9309,7.4393 10.8809,7.3143 C10.8319,7.1893 10.7369,7.0923 10.6139,7.0383 C10.5559,7.0143 10.4949,7.0003 10.4339,6.9973 L10.4139,6.9983 L9.9839,6.9983 L10.2969,6.0833 C10.3869,5.8203 10.2459,5.5343 9.9839,5.4453 C9.9299,5.4273 9.8749,5.4183 9.8219,5.4183 C9.6069,5.4183 9.4149,5.5543 9.3459,5.7593 L8.8059,7.3383 C8.7619,7.4653 8.7709,7.6013 8.8299,7.7223 C8.8889,7.8423 8.9909,7.9323 9.1179,7.9753 C9.1689,7.9933 9.2239,8.0033 9.2819,8.0033 L9.6509,8.0033 L9.6419,8.0243 L9.2959,8.8293 C9.2439,8.9523 9.2419,9.0893 9.2909,9.2133 C9.3409,9.3383 9.4369,9.4363 9.5609,9.4893" id="Fill-4"></path>
            <path d="M10.0325,2.9717 C9.7555,2.9717 9.5295,3.1977 9.5295,3.4747 L9.5295,4.4787 C9.5305,4.7557 9.7565,4.9807 10.0325,4.9807 C10.3095,4.9807 10.5365,4.7547 10.5365,4.4777 L10.5365,3.4747 C10.5365,3.1977 10.3095,2.9717 10.0325,2.9717" id="Fill-6"></path>
            <path d="M10.0325,9.978 C9.7555,9.978 9.5295,10.204 9.5295,10.481 L9.5295,11.484 C9.5295,11.761 9.7555,11.987 10.0325,11.987 C10.3095,11.987 10.5365,11.761 10.5365,11.484 L10.5365,10.481 C10.5365,10.204 10.3095,9.978 10.0325,9.978" id="Fill-8"></path>
            <path d="M12.5306,7.4785 C12.5306,7.7555 12.7566,7.9805 13.0326,7.9805 L14.0356,7.9805 C14.3136,7.9805 14.5396,7.7555 14.5396,7.4795 C14.5396,7.3455 14.4876,7.2195 14.3926,7.1245 C14.2986,7.0285 14.1716,6.9765 14.0376,6.9765 L13.0326,6.9765 C12.7566,6.9765 12.5306,7.2015 12.5306,7.4785" id="Fill-10"></path>
            <path d="M7.5345,7.4785 C7.5335,7.2015 7.3065,6.9765 7.0305,6.9765 L6.0265,6.9765 C5.7505,6.9765 5.5245,7.2015 5.5245,7.4785 C5.5245,7.7555 5.7505,7.9805 6.0265,7.9805 L7.0305,7.9805 C7.3075,7.9805 7.5345,7.7555 7.5345,7.4785" id="Fill-12"></path>
            <path d="M13.2191,5.002 C13.3101,4.903 13.3581,4.775 13.3521,4.64 C13.3461,4.507 13.2881,4.383 13.1911,4.293 C13.0971,4.206 12.9761,4.159 12.8491,4.159 C12.7221,4.159 12.6011,4.206 12.5081,4.292 L11.7981,5.002 C11.6021,5.197 11.6021,5.516 11.7981,5.711 C11.8911,5.805 12.0211,5.858 12.1531,5.858 C12.2901,5.858 12.4161,5.807 12.5091,5.712 L13.2191,5.002 Z" id="Fill-14"></path>
            <path d="M8.264,9.9561 C8.355,9.8581 8.402,9.7301 8.397,9.5961 C8.391,9.4621 8.334,9.3381 8.236,9.2471 C8.143,9.1611 8.022,9.1131 7.895,9.1131 C7.769,9.1131 7.648,9.1601 7.553,9.2461 L6.843,9.9551 C6.748,10.0491 6.696,10.1761 6.696,10.3101 C6.696,10.4441 6.748,10.5701 6.843,10.6651 C6.937,10.7591 7.066,10.8131 7.199,10.8131 C7.333,10.8131 7.462,10.7601 7.555,10.6661 L8.264,9.9561 Z" id="Fill-16"></path>
            <path d="M12.5111,9.2456 C12.4171,9.1526 12.2921,9.1016 12.1591,9.1016 C12.0241,9.1016 11.8961,9.1546 11.8001,9.2526 C11.6101,9.4466 11.6101,9.7626 11.8001,9.9556 L12.5111,10.6656 C12.6051,10.7606 12.7311,10.8126 12.8661,10.8126 C13.0001,10.8126 13.1261,10.7606 13.2211,10.6656 C13.3171,10.5716 13.3681,10.4446 13.3681,10.3096 C13.3681,10.1756 13.3171,10.0506 13.2221,9.9566 L12.5111,9.2456 Z" id="Fill-18"></path>
            <path d="M8.262,4.998 L7.554,4.291 C7.46,4.198 7.334,4.147 7.201,4.147 C7.067,4.147 6.939,4.201 6.842,4.298 C6.65,4.496 6.65,4.805 6.842,5.003 L7.555,5.713 C7.651,5.808 7.776,5.859 7.908,5.859 C8.042,5.859 8.168,5.808 8.264,5.713 C8.36,5.618 8.411,5.491 8.411,5.357 C8.411,5.223 8.36,5.098 8.265,5.003 L8.262,4.998 Z" id="Fill-20"></path>
        </g>
    </g>
</svg>
