<svg xmlns="http://www.w3.org/2000/svg" width="507.657" height="607.125" viewBox="0 0 507.657 607.125">
  <g id="Group_148" data-name="Group 148" transform="translate(-1243.645 -34.875)">
    <g id="Group_129" data-name="Group 129" transform="translate(1243.645 34.875)" style="isolation: isolate">
      <g id="Group_123" data-name="Group 123" transform="translate(31.96 148.911)">
        <path id="Path_3011" data-name="Path 3011" d="M2560.792,472.989s8.7,8.149,11.377,10.331c2.279,1.861,7.968,6.37,14.8,6.529a15.241,15.241,0,0,0,3.643-.341c8.4-1.82,15.851-9.42,19.134-10.752s6.833,3.961,8.376,14.268,8.63,47.491,8.892,55.686,2.23,7.888,2.23,7.888c3.678-15.293-9.462-69.83-10.835-75.492s1.141-5.669,6.392-7.313,14.251-2.956,18.354-11.885,12.53-13.885,12.884-16.216c0,0-16.165,7.048-23.968,13.4s-12.175,11.107-14.225,10.321,1.27-6.821,7.188-11.771,3.842-17.124,1.5-22.97-1.9-18.032-3.2-18.574-.85,10.729-3.162,18.727-5.683,16.281-6.551,22.1-1.32,9.071-3.167,5.77c-1.815-3.24-4.125-26.162-10.688-34.758-.12-.158-.242-.312-.368-.46-6.842-8.206-12.385-25.026-14.187-26.55s1.363,13.707.956,18.731c-.347,4.286,1.225,18.3,4.259,25.374a12.03,12.03,0,0,0,1.7,2.957c4.134,4.915,14.555,17.516,14.657,19.5s-11.164-3.912-13.093-8.307c-.616-1.405-2.773-3.61-5.634-6.048-6.065-5.175-15.3-11.4-19.71-13.245-6.484-2.714-12.353-6.492-12.094-4.776s7.344,11.421,9.851,15.435,13,15.256,19.154,17.615q.358.134.729.265c6.187,2.146,15.544,2.8,18.206,4.452,2.771,1.708-.592,1.947-8.047,3.066a77.546,77.546,0,0,1-10.231,1,43.9,43.9,0,0,1-15.3-2.364C2560.746,471.214,2560.792,472.989,2560.792,472.989Z" transform="translate(-2556.244 -400.823)" fill="#a1bdca"/>
        <path id="Path_3012" data-name="Path 3012" d="M2579.33,419.66c-.348,4.286,1.226,18.3,4.258,25.374a61.437,61.437,0,0,1,9.341-17.095c-.12-.158-.243-.312-.368-.46-6.842-8.206-12.385-25.026-14.187-26.55S2579.737,414.637,2579.33,419.66Z" transform="translate(-2549.403 -400.823)" fill="#456888"/>
        <path id="Path_3013" data-name="Path 3013" d="M2566.1,442.4c2.508,4.014,13,15.256,19.154,17.615q.358.134.729.265a86.536,86.536,0,0,1,2.069-15.294c-6.065-5.175-15.3-11.4-19.71-13.245-6.484-2.714-12.353-6.492-12.094-4.776S2563.6,438.383,2566.1,442.4Z" transform="translate(-2556.244 -392.671)" fill="#456888"/>
        <path id="Path_3014" data-name="Path 3014" d="M2559.7,455.726s8.7,8.149,11.377,10.331c2.279,1.861,7.968,6.37,14.8,6.529a129.266,129.266,0,0,1-1.055-12.9,43.913,43.913,0,0,1-15.3-2.364C2559.652,453.952,2559.7,455.726,2559.7,455.726Z" transform="translate(-2555.148 -383.561)" fill="#456888"/>
      </g>
      <g id="Group_125" data-name="Group 125" transform="translate(0 191.176)">
        <g id="Group_124" data-name="Group 124">
          <path id="Path_3015" data-name="Path 3015" d="M2582.645,567.408c5.406,15.292,10.939,12.485,29.633,20.256,10.049,4.177,12.131,11.879,13.184,16.013.9,3.56,1.041,4.481,4.83-1.762,8.193-13.5,1.35-32.728-10.646-40.235s-16.306-14.385-12.545-23.018,1.312-24.931-22.1-37.175-32.672-13.541-30.76-28.709-8.27-37.6-17.213-39.825a1.3,1.3,0,0,0-1.321.447c-1.456,1.575-1.723,6.812,1.244,13.029,3.727,7.812,2.024,17.831.187,21.764-3.571,7.64-9.576,25.41.033,42s29.256,13.811,40.895,23.794S2577.238,552.117,2582.645,567.408Z" transform="translate(-2531.979 -432.912)" fill="#fee2b9"/>
          <path id="Path_3016" data-name="Path 3016" d="M2582.645,567.291c5.406,15.292,10.939,12.485,29.633,20.256,10.049,4.177,12.131,11.879,13.184,16.013.123-6.815-1.195-16.622-8.812-21.893-12.443-8.61-28.505-15.747-21.473-31.324s-5.42-38.524-28.106-41.354-22.908-23.928-21.107-45.173c1.4-16.476-5.724-25.523-10.257-30.534-1.456,1.575-1.723,6.812,1.244,13.029,3.727,7.812,2.024,17.831.187,21.764-3.571,7.641-9.576,25.41.033,42s29.256,13.811,40.895,23.794S2577.238,552,2582.645,567.291Z" transform="translate(-2531.979 -432.795)" fill="#fec672"/>
        </g>
        <path id="Path_3017" data-name="Path 3017" d="M2555.39,497.242a2.586,2.586,0,0,0,3.554.577,2.454,2.454,0,0,0,.59-3.473,2.585,2.585,0,0,0-3.554-.577A2.453,2.453,0,0,0,2555.39,497.242Z" transform="translate(-2524.705 -413.762)" fill="#fee2b9"/>
        <path id="Path_3018" data-name="Path 3018" d="M2539.317,491.74a2.085,2.085,0,0,0,2.866.465,1.98,1.98,0,0,0,.476-2.8,2.085,2.085,0,0,0-2.865-.466A1.979,1.979,0,0,0,2539.317,491.74Z" transform="translate(-2529.773 -415.265)" fill="#fee2b9"/>
        <path id="Path_3019" data-name="Path 3019" d="M2537.658,463.159a1.4,1.4,0,0,0,1.928.312,1.331,1.331,0,0,0,.321-1.885,1.4,1.4,0,0,0-1.929-.314A1.333,1.333,0,0,0,2537.658,463.159Z" transform="translate(-2530.259 -423.999)" fill="#fee2b9"/>
        <path id="Path_3020" data-name="Path 3020" d="M2579.384,499.829a1.4,1.4,0,0,0,1.929.314,1.331,1.331,0,0,0,.321-1.885,1.405,1.405,0,0,0-1.93-.313A1.333,1.333,0,0,0,2579.384,499.829Z" transform="translate(-2517.028 -412.37)" fill="#fec672"/>
        <path id="Path_3021" data-name="Path 3021" d="M2557.518,487.094a.809.809,0,0,0,1.112.18.769.769,0,0,0,.186-1.087.809.809,0,0,0-1.112-.18A.768.768,0,0,0,2557.518,487.094Z" transform="translate(-2523.928 -416.122)" fill="#fec672"/>
        <path id="Path_3022" data-name="Path 3022" d="M2551.623,489.315a.809.809,0,0,0,1.112.18.768.768,0,0,0,.185-1.085.808.808,0,0,0-1.112-.182A.768.768,0,0,0,2551.623,489.315Z" transform="translate(-2525.796 -415.418)" fill="#fec672"/>
      </g>
      <g id="Group_128" data-name="Group 128" transform="translate(439.033 160.727)">
        <g id="Group_127" data-name="Group 127">
          <g id="Group_126" data-name="Group 126">
            <path id="Path_3023" data-name="Path 3023" d="M2898.108,516.974l.714-.576c-4.743-5.575-4.8-10.695-3.067-15.754v0c.035-.105.072-.209.112-.313.122-.352.255-.7.4-1.051.031-.086.067-.171.1-.256a72.324,72.324,0,0,1,3.675-7.268q.682-1.231,1.355-2.476v0a44.01,44.01,0,0,0,3.882-9.055q.208-.751.356-1.495a22.832,22.832,0,0,0,.327-7.289v-.007A29.489,29.489,0,0,0,2898.821,456l-.017-.018a.093.093,0,0,0-.018-.02.412.412,0,0,0-.063-.076l0,0a46.654,46.654,0,0,0-10.307-8.956,26.071,26.071,0,0,1-6.745-6.146c-.342-.449-.664-.906-.97-1.378v0a27.121,27.121,0,0,1-4.09-15.435c0-.091,0-.182,0-.274l-.923-.016c-.008.357-.009.714-.007,1.067a28.993,28.993,0,0,0,2.665,12.358,23.92,23.92,0,0,0,2.389,3.974.11.11,0,0,0,.02.027c.054.078.113.154.171.226a26.865,26.865,0,0,0,6.976,6.352,46.385,46.385,0,0,1,9.24,7.783,36.929,36.929,0,0,1,3.323,4.24.456.456,0,0,1,.032.047l.008.011c3.635,5.441,5.613,11.809,4.257,18.626q-.154.8-.376,1.6c-.08.295-.167.593-.258.886-.07.223-.144.444-.218.664a62.027,62.027,0,0,1-4.681,9.787c-.91,1.65-1.814,3.281-2.613,4.908-.434.88-.839,1.764-1.2,2.645C2893.055,504.658,2892.589,510.482,2898.108,516.974Z" transform="translate(-2862.023 -405.392)" fill="#a1bdca"/>
            <path id="Path_3024" data-name="Path 3024" d="M2876.9,428.428c.292.3.536.537.715.716.231.221.361.343.361.343.2-.378.395-.749.568-1.12,5.549-11.581-1.362-19.023-3.981-18.553a.829.829,0,0,0-.191.05C2863.775,413.74,2873.5,424.928,2876.9,428.428Z" transform="translate(-2863.962 -409.794)" fill="#a1bdca"/>
            <path id="Path_3025" data-name="Path 3025" d="M2884.042,439.119a.112.112,0,0,0,.032-.009,1.383,1.383,0,0,0,.137-.036c.229-.058.372-.1.41-.109l.013,0,0,0c-.185-.29-.373-.569-.562-.84a23.9,23.9,0,0,0-2.439-3c-7.253-7.518-15.749-5.3-16.15-3.025a10.573,10.573,0,0,0-.161,1.384C2864.823,443.478,2880.748,439.955,2884.042,439.119Z" transform="translate(-2865.311 -403.409)" fill="#a1bdca"/>
            <path id="Path_3026" data-name="Path 3026" d="M2893.074,484.688l.483.242c.191.093.357.17.49.237.166.076.288.133.357.163l.062.028.041-.283c.076-.528.135-1.042.179-1.545l0,0c.032-.423.054-.838.066-1.241.374-11.654-8.338-15.874-10.257-14.322-.1.084-.2.166-.3.25C2876.1,475.176,2888.718,482.48,2893.074,484.688Z" transform="translate(-2860.163 -391.446)" fill="#a1bdca"/>
            <path id="Path_3027" data-name="Path 3027" d="M2899.156,453.245c.046-.012.068-.02.068-.02a24.068,24.068,0,0,0-3.423-4.267c-7.157-7.006-15.332-4.83-15.729-2.6a11.336,11.336,0,0,0-.162,1.395C2879.386,458.505,2897.879,453.6,2899.156,453.245Z" transform="translate(-2860.684 -398.886)" fill="#a1bdca"/>
            <path id="Path_3028" data-name="Path 3028" d="M2899.583,470.688c.385.147.716.265.98.355.43.152.681.228.681.228a25.1,25.1,0,0,0-.047-2.713c-.843-11.92-10.172-15.215-11.912-13.438-.274.282-.526.558-.747.835C2882.506,463.4,2894.934,468.942,2899.583,470.688Z" transform="translate(-2858.458 -395.563)" fill="#a1bdca"/>
            <path id="Path_3029" data-name="Path 3029" d="M2879.8,441.325c.131-.061.264-.125.393-.188l.015-.007c.107-.051.217-.105.323-.161,12.28-6.142,10.961-16.734,8.423-17.46-.354-.1-.7-.184-1.023-.244-9.6-1.89-8.926,11.45-8.37,16.323l0,0c.027.257.058.491.082.7.064.477.118.811.141.955C2879.792,441.3,2879.8,441.325,2879.8,441.325Z" transform="translate(-2860.881 -405.58)" fill="#a1bdca"/>
            <path id="Path_3030" data-name="Path 3030" d="M2894.289,452.885v0l.066.109a.068.068,0,0,1,.015-.013c9.814-10.365,4.434-20.1,1.747-19.85a9.932,9.932,0,0,0-2.854.652C2884.985,437.171,2893.435,451.483,2894.289,452.885Z" transform="translate(-2857.59 -402.394)" fill="#a1bdca"/>
            <path id="Path_3031" data-name="Path 3031" d="M2897.927,469.652c.221-.057.441-.113.655-.173,13.382-3.689,14.189-14.4,11.828-15.591a10.78,10.78,0,0,0-1.925-.769c-5.757-1.65-8.382,3.943-9.576,9.064v.007A41.264,41.264,0,0,0,2897.927,469.652Z" transform="translate(-2854.968 -396.148)" fill="#a1bdca"/>
            <path id="Path_3032" data-name="Path 3032" d="M2890.638,485.538h.179c.066,0,.128,0,.193,0,.1,0,.21,0,.312,0s.2,0,.31,0c11.873-.236,16.131-7.826,15.758-10.944a1.637,1.637,0,0,0-.465-1.058c-4.095-3.683-7.582-2.285-10.27.632v0a28.988,28.988,0,0,0-4.851,8.192v.007c-.255.611-.467,1.17-.64,1.637C2890.815,484.945,2890.638,485.538,2890.638,485.538Z" transform="translate(-2857.279 -390.285)" fill="#a1bdca"/>
          </g>
        </g>
        <path id="Path_3033" data-name="Path 3033" d="M2876.907,428.422l-2.34-18.612a.838.838,0,0,0-.191.05c-10.6,3.875-.874,15.062,2.528,18.563Z" transform="translate(-2863.962 -409.789)" fill="#456888"/>
        <path id="Path_3034" data-name="Path 3034" d="M2899.583,470.379l-11.046-14.733C2882.506,463.089,2894.934,468.633,2899.583,470.379Z" transform="translate(-2858.458 -395.254)" fill="#456888"/>
        <path id="Path_3035" data-name="Path 3035" d="M2879.912,446.894c-.526,10.754,17.968,5.845,19.245,5.494l.009.011.06-.03-.1-.028Z" transform="translate(-2860.684 -398.029)" fill="#456888"/>
        <path id="Path_3036" data-name="Path 3036" d="M2884.042,438.264c.054.078.113.154.171.227l.011-.191-.15-.045-.052-.017-18.7-5.615C2864.823,442.624,2880.748,439.1,2884.042,438.264Z" transform="translate(-2865.311 -402.555)" fill="#456888"/>
        <path id="Path_3037" data-name="Path 3037" d="M2893.074,484.553l-8.877-16.474C2876.1,475.041,2888.718,482.346,2893.074,484.553Z" transform="translate(-2860.163 -391.312)" fill="#456888"/>
        <path id="Path_3038" data-name="Path 3038" d="M2895.25,433.134a9.915,9.915,0,0,0-2.854.652l1.088,19.178,0,.033.032.005-.017-.018C2903.317,442.62,2897.935,432.887,2895.25,433.134Z" transform="translate(-2856.722 -402.394)" fill="#456888"/>
        <path id="Path_3039" data-name="Path 3039" d="M2898.424,469.409c13.381-3.689,14.189-14.4,11.829-15.591a10.8,10.8,0,0,0-1.924-.769Z" transform="translate(-2854.81 -396.078)" fill="#456888"/>
        <path id="Path_3040" data-name="Path 3040" d="M2888.649,423.466c-.354-.1-.7-.184-1.022-.244l-7.4,17.7C2892.506,434.784,2891.188,424.191,2888.649,423.466Z" transform="translate(-2860.58 -405.536)" fill="#456888"/>
        <path id="Path_3041" data-name="Path 3041" d="M2890.638,484.749h.179c.05,0,.117,0,.195,0s.194,0,.31,0c.1,0,.2,0,.31,0,11.873-.236,16.131-7.826,15.758-10.944l-16.267,10.629Z" transform="translate(-2857.279 -389.496)" fill="#456888"/>
      </g>
      <path id="Path_3042" data-name="Path 3042" d="M2820.024,347.274c-64.25-5.877-87.138,98.992-137.074,116.657s-201.914,84.146-114.479,213.1,279.438,49.028,378.13,38.34,113.055-156.965,58.078-208.338S2990.337,362.853,2820.024,347.274Z" transform="translate(-2528.837 -268.968)" fill="#eef2f5" style="mix-blend-mode: overlay;isolation: isolate"/>
      <path id="Path_3043" data-name="Path 3043" d="M2774.279,347.568c-62.736,14.782-90.2,130.134-131.588,162.656s-163.138,143.533-37.675,237.856,280.62-42.083,370.449-83.44,59.39-123.3-28.211-198.124C2889.979,417.6,2940.572,308.388,2774.279,347.568Z" transform="translate(-2526.334 -271.439)" fill="#edf2f5"/>
      <path id="Path_3044" data-name="Path 3044" d="M2786.456,616.573s8.909,67.115,7.053,79.087,8.166,22.854,15.219,25.757,14.846,6.167,16.7,7.436,2.968-3.083-1.486-6.711-8.908-5.442-8.352-6.53,12.62,5.079,15.219,6.348,11.508,10.883,14.291,10.7-6.31-11.971-7.98-13.6,7.423,4.535,11.508,9.8,3.9-3.809.927-8.162-12.621-8.708-11.692-8.888,6.68,3.083,10.393,4.9,3.34-2,1.485-3.628-16.518-10.159-25.8-13.423-13.92-16.87-10.765-34.828,5.92-50.789,5.92-50.789l-24.294-3.083Z" transform="translate(-2451.282 -185.28)" fill="#f6cda0"/>
      <path id="Path_3045" data-name="Path 3045" d="M2702.529,418.23c-7.61,4.4-5.381,21.223,8.167,33.919s26.135,54.246,29.88,59.678,13.178,9.707,18.56,5.761,4.64-12.653,10.579-16.1,8.723,2.9,13.92-.182,2.228-10.083,0-13.294,1.113-7.567,6.867-8.291,8.908-7.982,2.6-13.786-18.746-9.433-15.59-15.056,5.939-12.879,1.856-15.056-10.951,1.451-15.591.907-5.968-3.809-5.3-15.236-8.615-14.874-11.957-10.159-7.794,6.348-11.506,2-7.8,1.3-8.909,7.982C2723.873,434.736,2710.7,413.513,2702.529,418.23Z" transform="translate(-2479.27 -249.228)" fill="#243861"/>
      <path id="Path_3046" data-name="Path 3046" d="M2709.659,441.094c-.969,3.791-11.135,27.389-9.837,40.994s10.95,15.963,12.25,16.507,0,19.771,0,19.771,14.291,5.079,20.6,3.085,11.11-12.086,11.11-12.086,1.511-21.291,2.624-23.649,7.581-1.814,11.585-7.8,1.221-11.247-1.192-11.065-11.506,3.809-9.094-3.083,4.824-12.335,1.484-13.786-13.8-.906-19.333-4.9S2712.259,430.937,2709.659,441.094Z" transform="translate(-2478.791 -240.531)" fill="#f6cda0"/>
      <path id="Path_3047" data-name="Path 3047" d="M2721.184,497c8.62,2.252,14.477,2.176,23.014,0s9.617-6.894,10.562-5.08,2.429,8.344,6.141,8.344,33.78,3.991,45.657,7.982,30.068,29.748,35.634,50.79,12.249,44.984,18.189,60.221,6.681,32.651,4.825,37-13.362-4.353-21.158,0-23.014,6.53-24.128,5.079-1.855-15.6-4.081-13.423,1.855,39.18-.744,42.083a25.825,25.825,0,0,1-6.5,4.9s-34.334-3.445-36.934-7.074-57.534-82.714-64.958-87.067-37.489-26.121-37.489-26.121S2673.3,534,2681.1,526.022s31.922-17.051,35.633-18.865S2717.874,496.135,2721.184,497Z" transform="translate(-2488.459 -223.154)" fill="#fdbd59"/>
      <path id="Path_3048" data-name="Path 3048" d="M2909.4,389.763c-2.427,6.127-7.729,11.874-16.3,16.39-33.407,17.6-83.15,9.98-136.6,3.451s-65.256,0-102.94,0c-30.122,0-46.524-5.366-54.1-12.984-13.252-13.366.591-33.674,15.245-44.242,23.018-16.6,69.042-7.347,85.377-35.643s65.322-37,93.406-21.049,33.541,47.887,75.11,52.24C2899.493,351.159,2916.453,372.034,2909.4,389.763Z" transform="translate(-2512.271 -287.764)" fill="#a1bdca"/>
      <path id="Path_3049" data-name="Path 3049" d="M2825.275,486.294s-12.992,22.216-10.393,26.163S2827.131,518.945,2825.275,486.294Z" transform="translate(-2442.377 -224.809)" fill="#a1bdca"/>
      <path id="Path_3050" data-name="Path 3050" d="M2808.142,437.378s-12.992,22.214-10.394,26.163S2810,470.028,2808.142,437.378Z" transform="translate(-2447.811 -240.32)" fill="#a1bdca"/>
      <path id="Path_3051" data-name="Path 3051" d="M2629.132,506.8s-12.992,22.216-10.394,26.163S2630.988,539.449,2629.132,506.8Z" transform="translate(-2504.575 -218.307)" fill="#a1bdca"/>
      <path id="Path_3052" data-name="Path 3052" d="M2667.477,471.116s-12.991,22.216-10.393,26.163S2669.333,503.767,2667.477,471.116Z" transform="translate(-2492.415 -229.622)" fill="#a1bdca"/>
      <path id="Path_3053" data-name="Path 3053" d="M2841.274,419.462s-12.992,22.214-10.395,26.162S2843.13,452.112,2841.274,419.462Z" transform="translate(-2437.304 -246.002)" fill="#a1bdca"/>
      <path id="Path_3054" data-name="Path 3054" d="M2663.312,419.453s-12.991,22.214-10.393,26.163S2665.168,452.1,2663.312,419.453Z" transform="translate(-2493.737 -246.004)" fill="#a1bdca"/>
      <path id="Path_3055" data-name="Path 3055" d="M2781.614,396.654s-12.992,22.214-10.393,26.162S2783.469,429.3,2781.614,396.654Z" transform="translate(-2456.223 -253.234)" fill="#a1bdca"/>
      <path id="Path_3056" data-name="Path 3056" d="M2640.521,387.708s-12.993,22.214-10.394,26.163S2642.376,420.358,2640.521,387.708Z" transform="translate(-2500.964 -256.071)" fill="#a1bdca"/>
      <path id="Path_3057" data-name="Path 3057" d="M2587.029,705.4l6.776-17.935L2612.044,694l-4.319,19.588Z" transform="translate(-2514.521 -161.016)" fill="#f6cda0"/>
      <path id="Path_3058" data-name="Path 3058" d="M2621.808,696.323l-2.227,19.046,22.635,1.5,1.306-24.355Z" transform="translate(-2504.199 -159.415)" fill="#f6cda0"/>
      <path id="Path_3059" data-name="Path 3059" d="M2677.807,558.539c-10.973-7.432-34.6-15.236-52.979,6.53s-34.521,173.047-34.521,173.047l21.157,3.81,33.964-105.57,33.407,21.766s27.277,84.552,86.208,64.409S2716.665,584.862,2677.807,558.539Z" transform="translate(-2513.483 -204.338)" fill="#456888"/>
      <path id="Path_3060" data-name="Path 3060" d="M2627.511,707.078s-2.227,9.8-4.083,12.879-26.912,31.018-28.026,37.185,7.795,5.986,17.632,1.633,15.033-13.06,26.726-17.6,15.219-7.8,12.621-15.236-2.6-17.051-2.6-17.051S2644.77,711.613,2627.511,707.078Z" transform="translate(-2511.896 -154.797)" fill="#243861"/>
      <path id="Path_3061" data-name="Path 3061" d="M2595.386,700.653s17.819,4.717,22.828,4.173a29.074,29.074,0,0,0-.927,13.241c1.3,6.712-11.323,10.7-22.828,16.144s-26.355,13.242-31.737,10.521,4.083-13.6,8.907-18.139S2591.573,717.287,2595.386,700.653Z" transform="translate(-2522.739 -156.834)" fill="#243861"/>
      <path id="Path_3062" data-name="Path 3062" d="M2794.595,656.448s-74.609-105.569-115.812-108.834-50.667,119.717-58.462,197.534l22.828,3.809s41.759-118.085,45.1-110.467,37.862,79.993,76.28,88.157,59.02-32.651,59.576-49.52c0,0-13.362-8.706-17.26-14.693S2794.595,656.448,2794.595,656.448Z" transform="translate(-2503.965 -205.384)" fill="#a1bdca"/>
      <path id="Path_3063" data-name="Path 3063" d="M2909.4,389.763c-93.294-17.316-111.079-84.706-141.769-57.073-34.52,31.094-46.769,42.815-103.183,37.581-38.173-3.538-56.881,14.387-64.989,26.349-13.252-13.366.591-33.674,15.245-44.242,23.018-16.6,69.042-7.347,85.377-35.643s65.322-37,93.406-21.049,33.541,47.887,75.11,52.24C2899.493,351.159,2916.453,372.034,2909.4,389.763Z" transform="translate(-2512.271 -287.764)" fill="#ffe5c8"/>
      <path id="Path_3064" data-name="Path 3064" d="M2782.786,630.07c-1.533-14.553-4.928-29.826-8.523-46-2.534-11.4-5.154-23.177-7.428-35.922-5.647-31.645,7.438-37.541,8-37.776l.843,1.912-.421-.956.429.954c-.121.053-12.071,5.682-6.749,35.508,2.267,12.7,4.882,24.463,7.412,35.836,3.608,16.229,7.016,31.558,8.56,46.227Z" transform="translate(-2457.952 -217.172)" fill="#ffe5c8"/>
      <path id="Path_3065" data-name="Path 3065" d="M2721.2,511.093a53.926,53.926,0,0,1-12.307-1.409l.541-2.015c.225.057,22.59,5.592,33.763-6.79l1.6,1.379C2738.357,509.39,2728.824,511.093,2721.2,511.093Z" transform="translate(-2475.879 -220.184)" fill="#ffe5c8"/>
      <path id="Path_3066" data-name="Path 3066" d="M2783.537,637.574c-14.377-15.7-29.85-10.148-30-10.09l-.763-1.945c.168-.064,17.01-6.109,32.355,10.646Z" transform="translate(-2461.964 -181.007)" fill="#ffe5c8"/>
      <path id="Path_3067" data-name="Path 3067" d="M2786.519,620.569l-.1-2.081.048,1.04-.052-1.04c.078,0,7.921-.516,19.27-9.912,12.334-10.212,18.163-6.2,18.406-6.027l-1.272,1.673c-.032-.021-4.876-3.063-15.755,5.944C2795.093,620.077,2786.862,620.554,2786.519,620.569Z" transform="translate(-2451.295 -188.236)" fill="#ffe5c8"/>
      <path id="Path_3068" data-name="Path 3068" d="M2787.012,615.811l-.9-1.891.448.946-.451-.944c.063-.029,6.418-3.068,13.958-15.317l1.826,1.074C2793.968,612.559,2787.293,615.684,2787.012,615.811Z" transform="translate(-2451.391 -189.195)" fill="#ffe5c8"/>
      <path id="Path_3069" data-name="Path 3069" d="M2683.255,556.521c-6.329-14.925-.3-35.149-.037-36l2.043.594c-.061.2-6.073,20.376-.038,34.611Z" transform="translate(-2484.922 -213.956)" fill="#ffe5c8"/>
      <path id="Path_3070" data-name="Path 3070" d="M2674.228,622.484l-1.717-1.234c12.995-17.287,13.156-44.459,13.156-44.73h2.13C2687.8,577.659,2687.644,604.638,2674.228,622.484Z" transform="translate(-2487.416 -196.198)" fill="#ffe5c8"/>
      <path id="Path_3071" data-name="Path 3071" d="M2676.663,620.68l-1.553-1.426c8.681-9.033,17.528-28.535,17.618-28.731l1.951.84C2694.312,592.176,2685.594,611.389,2676.663,620.68Z" transform="translate(-2486.591 -191.758)" fill="#ffe5c8"/>
      <path id="Path_3072" data-name="Path 3072" d="M2758.249,660.741l-2.114-.27c1.612-12.081-3.757-23.8-3.811-23.921l1.941-.863C2754.5,636.188,2759.938,648.076,2758.249,660.741Z" transform="translate(-2462.105 -177.436)" fill="#ffe5c8"/>
    </g>
  </g>
</svg>
