<svg xmlns="http://www.w3.org/2000/svg" width="37.277" height="21.799" viewBox="0 0 37.277 21.799">
  <g id="Element" opacity="0.995">
    <path id="Path_1" data-name="Path 1" d="M284.843,224.29l-3.853-3.856a.934.934,0,0,0-1.318,0l-14.457,14.457a.929.929,0,0,0-.255.475l-.617,3.083a4.521,4.521,0,0,0-3.442-1.661,6.669,6.669,0,0,0-4.875,1.943A4.26,4.26,0,0,1,253,240.1a4.976,4.976,0,0,1-3.5-1.657.932.932,0,0,0-1.451,1.169,6.794,6.794,0,0,0,4.952,2.35,6.036,6.036,0,0,0,4.227-1.8,4.835,4.835,0,0,1,3.642-1.505,3.058,3.058,0,0,1,2.614,1.848,1.062,1.062,0,0,0,1.3.839.766.766,0,0,0,.1-.039h.029a.659.659,0,0,0,.091,0l.071-.01.021,0h0l.006,0,4.811-.963a.926.926,0,0,0,.475-.253l14.457-14.457A.93.93,0,0,0,284.843,224.29Zm-15.574,14.257-3.173.633.635-3.17,11.189-11.189.608.608-10.7,10.705a.932.932,0,0,0,1.316,1.318l10.7-10.705.61.61Zm12.507-12.507-1.269-1.269h0l-1.269-1.269,1.092-1.092,2.537,2.537Z" transform="translate(-247.84 -220.162)" fill="#212121"/>
  </g>
</svg>
